<?xml version="1.0" encoding="utf-8"?>
<!-- Generator: Adobe Illustrator 21.1.0, SVG Export Plug-In . SVG Version: 6.00 Build 0)  -->
<svg version="1.1" id="Layer_1" xmlns="http://www.w3.org/2000/svg" xmlns:xlink="http://www.w3.org/1999/xlink" x="0px" y="0px"
	 viewBox="0 0 632 140" style="enable-background:new 0 0 632 140;" xml:space="preserve">
<style type="text/css">
	.st0{enable-background:new    ;}
	.st1{fill:#263238;}
	.st2{fill:#BCBCC3;}
	.st3{fill:#F8F8F8;}
	.st4{fill:#65656C;}
	.st5{fill:url(#Oval-8_3_);}
	.st6{fill:#65656C;stroke:#FFFFFF;stroke-width:0.6345;}
	.st7{fill:#FFFFFF;}
	.st8{font-family:'OpenSans';}
	.st9{font-size:11.4207px;}
	.st10{fill:none;stroke:#979797;stroke-linecap:square;stroke-dasharray:3;}
</style>
<title>How_it_works_illustration</title>
<desc>Created with Sketch.</desc>
<g id="Web-final">
	<g id="WRX_P2P_Web_01.1_How-It-Works" transform="translate(-211.000000, -580.000000)">
		<g id="How_it_works_illustration" transform="translate(208.000000, 580.000000)">
			<g id="Group-12">
				<g class="st0">
					<g>
						<path class="st1" d="M3.9,111v-10.5h3c0.6,0,1.1,0.1,1.6,0.2s0.9,0.3,1.2,0.5c0.3,0.2,0.6,0.6,0.8,1s0.3,0.9,0.3,1.5
							c0,0.6-0.1,1-0.3,1.4s-0.5,0.7-0.8,1s-0.7,0.5-1.2,0.6c-0.5,0.1-1,0.2-1.6,0.2H5.2v4.2H3.9z M5.2,105.8h1.6
							c0.9,0,1.6-0.2,2-0.5c0.4-0.3,0.7-0.9,0.7-1.6c0-0.8-0.2-1.3-0.7-1.6c-0.5-0.3-1.2-0.4-2.1-0.4H5.2V105.8z"/>
						<path class="st1" d="M13.9,111.2c-0.7,0-1.2-0.2-1.6-0.6s-0.6-0.9-0.6-1.6c0-0.9,0.4-1.5,1.1-2c0.8-0.5,2-0.8,3.6-1
							c0-0.2,0-0.5-0.1-0.7c0-0.2-0.1-0.4-0.2-0.6c-0.1-0.2-0.3-0.3-0.5-0.4s-0.5-0.2-0.8-0.2c-0.4,0-0.9,0.1-1.3,0.3
							s-0.7,0.4-1.1,0.6L12,104c0.4-0.2,0.8-0.5,1.3-0.7c0.5-0.2,1.1-0.3,1.7-0.3c0.9,0,1.6,0.3,2.1,0.9c0.4,0.6,0.6,1.4,0.6,2.3
							v4.8h-1.1l-0.1-0.9h0c-0.4,0.3-0.8,0.6-1.2,0.8C14.9,111.1,14.4,111.2,13.9,111.2z M14.3,110.1c0.4,0,0.7-0.1,1.1-0.3
							s0.7-0.4,1.1-0.8v-2.2c-0.7,0.1-1.2,0.2-1.6,0.3c-0.4,0.1-0.8,0.3-1.1,0.4s-0.5,0.3-0.6,0.6s-0.2,0.4-0.2,0.7
							c0,0.4,0.1,0.8,0.4,1C13.6,110,13.9,110.1,14.3,110.1z"/>
						<path class="st1" d="M20.3,114.3c-0.2,0-0.3,0-0.5,0s-0.3-0.1-0.4-0.1l0.3-1c0.1,0,0.2,0,0.3,0.1c0.1,0,0.2,0,0.3,0
							c0.4,0,0.8-0.2,1.1-0.5c0.3-0.3,0.5-0.7,0.7-1.2l0.2-0.6l-3.1-7.8h1.4l1.6,4.3c0.1,0.3,0.2,0.7,0.4,1.1
							c0.1,0.4,0.3,0.7,0.4,1.1h0.1c0.1-0.4,0.2-0.7,0.3-1.1c0.1-0.4,0.2-0.7,0.3-1.1l1.4-4.3h1.3l-2.9,8.4
							c-0.1,0.4-0.3,0.7-0.5,1.1c-0.2,0.3-0.4,0.6-0.6,0.9c-0.2,0.2-0.5,0.4-0.8,0.6C21.1,114.3,20.7,114.3,20.3,114.3z"/>
						<path class="st1" d="M33.5,111.2c-1,0-1.8-0.4-2.3-1.1c-0.6-0.7-0.9-1.7-0.9-3c0-0.6,0.1-1.2,0.3-1.7c0.2-0.5,0.4-0.9,0.7-1.3
							c0.3-0.4,0.7-0.6,1.1-0.8c0.4-0.2,0.8-0.3,1.3-0.3c0.4,0,0.8,0.1,1.2,0.2c0.3,0.2,0.7,0.4,1,0.7l-0.1-1.3v-3h1.3V111H36
							l-0.1-0.9h0c-0.3,0.3-0.7,0.6-1.1,0.8C34.4,111.1,34,111.2,33.5,111.2z M33.8,110.1c0.4,0,0.7-0.1,1-0.3
							c0.3-0.2,0.6-0.4,1-0.8V105c-0.3-0.3-0.6-0.5-1-0.6c-0.3-0.1-0.6-0.2-0.9-0.2c-0.3,0-0.6,0.1-0.9,0.2
							c-0.3,0.1-0.5,0.3-0.7,0.6c-0.2,0.3-0.4,0.6-0.5,0.9c-0.1,0.4-0.2,0.8-0.2,1.2c0,0.9,0.2,1.7,0.6,2.2
							C32.6,109.8,33.1,110.1,33.8,110.1z"/>
						<path class="st1" d="M40.4,101.6c-0.3,0-0.5-0.1-0.6-0.2c-0.2-0.2-0.3-0.4-0.3-0.6c0-0.3,0.1-0.5,0.3-0.6
							c0.2-0.2,0.4-0.2,0.6-0.2c0.3,0,0.5,0.1,0.6,0.2c0.2,0.2,0.3,0.4,0.3,0.6c0,0.2-0.1,0.4-0.3,0.6
							C40.9,101.5,40.7,101.6,40.4,101.6z M39.7,111v-7.8H41v7.8H39.7z"/>
						<path class="st1" d="M43.7,111v-7.8h1.1l0.1,1.4h0c0.3-0.5,0.6-0.9,1-1.2c0.4-0.3,0.8-0.4,1.2-0.4c0.3,0,0.6,0.1,0.8,0.2
							l-0.3,1.2c-0.1,0-0.2-0.1-0.4-0.1c-0.1,0-0.2,0-0.4,0c-0.3,0-0.7,0.1-1,0.4s-0.7,0.7-0.9,1.4v5H43.7z"/>
						<path class="st1" d="M52.2,111.2c-0.5,0-1-0.1-1.5-0.3c-0.5-0.2-0.8-0.5-1.2-0.8s-0.6-0.8-0.8-1.3c-0.2-0.5-0.3-1.1-0.3-1.7
							s0.1-1.2,0.3-1.7c0.2-0.5,0.5-0.9,0.8-1.3c0.3-0.4,0.7-0.6,1.1-0.8c0.4-0.2,0.8-0.3,1.3-0.3c0.5,0,0.9,0.1,1.3,0.3
							c0.4,0.2,0.7,0.4,1,0.7c0.3,0.3,0.5,0.7,0.6,1.2c0.1,0.4,0.2,1,0.2,1.5c0,0.1,0,0.3,0,0.4c0,0.1,0,0.2,0,0.3h-5.2
							c0.1,0.8,0.3,1.5,0.8,2s1.1,0.7,1.8,0.7c0.4,0,0.7-0.1,1-0.2c0.3-0.1,0.6-0.3,0.9-0.4l0.5,0.9c-0.3,0.2-0.7,0.4-1.1,0.6
							S52.7,111.2,52.2,111.2z M49.8,106.5h4.2c0-0.8-0.2-1.4-0.5-1.8c-0.3-0.4-0.8-0.6-1.4-0.6c-0.3,0-0.5,0.1-0.8,0.2
							s-0.5,0.3-0.7,0.5c-0.2,0.2-0.4,0.5-0.5,0.8S49.8,106.1,49.8,106.5z"/>
						<path class="st1" d="M60.1,111.2c-0.5,0-1-0.1-1.4-0.3c-0.4-0.2-0.8-0.4-1.2-0.8c-0.3-0.3-0.6-0.8-0.8-1.3
							c-0.2-0.5-0.3-1.1-0.3-1.7c0-0.7,0.1-1.2,0.3-1.7c0.2-0.5,0.5-0.9,0.8-1.3c0.3-0.4,0.7-0.6,1.2-0.8c0.5-0.2,0.9-0.3,1.4-0.3
							c0.5,0,0.9,0.1,1.3,0.3c0.4,0.2,0.7,0.4,1,0.6l-0.7,0.9c-0.2-0.2-0.5-0.4-0.7-0.5c-0.3-0.1-0.5-0.2-0.8-0.2
							c-0.4,0-0.7,0.1-1,0.2c-0.3,0.1-0.6,0.3-0.8,0.6c-0.2,0.3-0.4,0.6-0.5,1s-0.2,0.8-0.2,1.2s0.1,0.9,0.2,1.2
							c0.1,0.4,0.3,0.7,0.5,0.9c0.2,0.3,0.5,0.5,0.8,0.6c0.3,0.1,0.6,0.2,1,0.2c0.4,0,0.7-0.1,1-0.2c0.3-0.2,0.6-0.3,0.8-0.6
							l0.6,0.9c-0.4,0.3-0.7,0.6-1.2,0.7C61,111.1,60.5,111.2,60.1,111.2z"/>
						<path class="st1" d="M66.6,111.2c-0.4,0-0.8-0.1-1-0.2s-0.5-0.3-0.7-0.5c-0.2-0.2-0.3-0.5-0.4-0.8c-0.1-0.3-0.1-0.7-0.1-1.1
							v-4.3h-1.2v-1l1.2-0.1l0.2-2.2h1.1v2.2h2.1v1.1h-2.1v4.3c0,0.5,0.1,0.9,0.3,1.1c0.2,0.3,0.5,0.4,0.9,0.4c0.1,0,0.3,0,0.4-0.1
							c0.2,0,0.3-0.1,0.4-0.1l0.3,1c-0.2,0.1-0.4,0.1-0.7,0.2S66.8,111.2,66.6,111.2z"/>
						<path class="st1" d="M70.9,111.2c-0.5,0-0.9-0.1-1.1-0.4s-0.3-0.7-0.3-1.3v-9.8h1.3v9.9c0,0.2,0,0.4,0.1,0.4
							c0.1,0.1,0.2,0.1,0.3,0.1c0,0,0.1,0,0.1,0c0,0,0.1,0,0.2,0l0.2,1c-0.1,0-0.2,0.1-0.3,0.1S71.1,111.2,70.9,111.2z"/>
						<path class="st1" d="M73.8,114.3c-0.2,0-0.3,0-0.5,0s-0.3-0.1-0.4-0.1l0.3-1c0.1,0,0.2,0,0.3,0.1c0.1,0,0.2,0,0.3,0
							c0.4,0,0.8-0.2,1.1-0.5c0.3-0.3,0.5-0.7,0.7-1.2l0.2-0.6l-3.1-7.8h1.4l1.6,4.3c0.1,0.3,0.2,0.7,0.4,1.1
							c0.1,0.4,0.3,0.7,0.4,1.1h0.1c0.1-0.4,0.2-0.7,0.3-1.1c0.1-0.4,0.2-0.7,0.3-1.1l1.4-4.3h1.3l-2.9,8.4
							c-0.1,0.4-0.3,0.7-0.5,1.1c-0.2,0.3-0.4,0.6-0.6,0.9c-0.2,0.2-0.5,0.4-0.8,0.6C74.5,114.3,74.1,114.3,73.8,114.3z"/>
						<path class="st1" d="M86.7,111.2c-0.4,0-0.8-0.1-1-0.2s-0.5-0.3-0.7-0.5c-0.2-0.2-0.3-0.5-0.4-0.8c-0.1-0.3-0.1-0.7-0.1-1.1
							v-4.3h-1.2v-1l1.2-0.1l0.2-2.2h1.1v2.2h2.1v1.1h-2.1v4.3c0,0.5,0.1,0.9,0.3,1.1c0.2,0.3,0.5,0.4,0.9,0.4c0.1,0,0.3,0,0.4-0.1
							c0.2,0,0.3-0.1,0.4-0.1l0.3,1c-0.2,0.1-0.4,0.1-0.7,0.2S87,111.2,86.7,111.2z"/>
						<path class="st1" d="M92.5,111.2c-0.5,0-0.9-0.1-1.4-0.3c-0.4-0.2-0.8-0.4-1.1-0.8c-0.3-0.3-0.6-0.8-0.8-1.3
							c-0.2-0.5-0.3-1.1-0.3-1.7c0-0.7,0.1-1.2,0.3-1.7c0.2-0.5,0.5-0.9,0.8-1.3c0.3-0.4,0.7-0.6,1.1-0.8c0.4-0.2,0.9-0.3,1.4-0.3
							s0.9,0.1,1.4,0.3c0.4,0.2,0.8,0.4,1.1,0.8c0.3,0.4,0.6,0.8,0.8,1.3c0.2,0.5,0.3,1.1,0.3,1.7c0,0.6-0.1,1.2-0.3,1.7
							c-0.2,0.5-0.5,0.9-0.8,1.3c-0.3,0.3-0.7,0.6-1.1,0.8S93,111.2,92.5,111.2z M92.5,110.1c0.3,0,0.6-0.1,0.9-0.2
							c0.3-0.1,0.5-0.3,0.7-0.6c0.2-0.3,0.3-0.6,0.5-0.9c0.1-0.4,0.2-0.8,0.2-1.2s-0.1-0.9-0.2-1.2c-0.1-0.4-0.3-0.7-0.5-1
							s-0.4-0.5-0.7-0.6c-0.3-0.1-0.6-0.2-0.9-0.2s-0.6,0.1-0.9,0.2c-0.3,0.1-0.5,0.3-0.7,0.6s-0.3,0.6-0.5,1s-0.2,0.8-0.2,1.2
							s0.1,0.9,0.2,1.2c0.1,0.4,0.3,0.7,0.5,0.9c0.2,0.3,0.4,0.5,0.7,0.6C91.9,110,92.2,110.1,92.5,110.1z"/>
						<path class="st1" d="M103.4,111.2c-0.6,0-1.1-0.1-1.6-0.3c-0.5-0.2-0.9-0.5-1.3-0.8l0.7-0.9c0.3,0.3,0.7,0.5,1,0.7
							s0.8,0.3,1.2,0.3c0.5,0,0.9-0.1,1.2-0.4c0.3-0.2,0.4-0.5,0.4-0.9c0-0.2-0.1-0.4-0.2-0.5c-0.1-0.1-0.2-0.3-0.4-0.4
							c-0.2-0.1-0.4-0.2-0.6-0.3c-0.2-0.1-0.4-0.2-0.6-0.3c-0.3-0.1-0.6-0.2-0.8-0.3c-0.3-0.1-0.5-0.3-0.7-0.4
							c-0.2-0.2-0.4-0.4-0.5-0.6s-0.2-0.5-0.2-0.8c0-0.3,0.1-0.6,0.2-0.9c0.1-0.3,0.3-0.5,0.5-0.7s0.5-0.4,0.8-0.5
							c0.3-0.1,0.7-0.2,1.1-0.2c0.5,0,0.9,0.1,1.4,0.3s0.8,0.4,1.1,0.6l-0.6,0.8c-0.3-0.2-0.5-0.4-0.8-0.5s-0.6-0.2-0.9-0.2
							c-0.5,0-0.9,0.1-1.1,0.3c-0.2,0.2-0.3,0.5-0.3,0.8c0,0.2,0,0.3,0.1,0.5c0.1,0.1,0.2,0.2,0.4,0.4s0.3,0.2,0.6,0.3
							c0.2,0.1,0.4,0.2,0.6,0.2c0.3,0.1,0.6,0.2,0.8,0.3c0.3,0.1,0.5,0.3,0.8,0.4c0.2,0.2,0.4,0.4,0.6,0.6s0.2,0.6,0.2,0.9
							c0,0.3-0.1,0.6-0.2,0.9c-0.1,0.3-0.3,0.5-0.5,0.7c-0.2,0.2-0.5,0.4-0.9,0.5C104.2,111.1,103.8,111.2,103.4,111.2z"/>
						<path class="st1" d="M111.2,111.2c-0.5,0-1-0.1-1.5-0.3c-0.5-0.2-0.8-0.5-1.2-0.8s-0.6-0.8-0.8-1.3c-0.2-0.5-0.3-1.1-0.3-1.7
							s0.1-1.2,0.3-1.7c0.2-0.5,0.5-0.9,0.8-1.3c0.3-0.4,0.7-0.6,1.1-0.8c0.4-0.2,0.8-0.3,1.3-0.3c0.5,0,0.9,0.1,1.3,0.3
							c0.4,0.2,0.7,0.4,1,0.7c0.3,0.3,0.5,0.7,0.6,1.2c0.1,0.4,0.2,1,0.2,1.5c0,0.1,0,0.3,0,0.4c0,0.1,0,0.2,0,0.3h-5.2
							c0.1,0.8,0.3,1.5,0.8,2s1.1,0.7,1.8,0.7c0.4,0,0.7-0.1,1-0.2c0.3-0.1,0.6-0.3,0.9-0.4l0.5,0.9c-0.3,0.2-0.7,0.4-1.1,0.6
							S111.7,111.2,111.2,111.2z M108.8,106.5h4.2c0-0.8-0.2-1.4-0.5-1.8c-0.3-0.4-0.8-0.6-1.4-0.6c-0.3,0-0.5,0.1-0.8,0.2
							s-0.5,0.3-0.7,0.5c-0.2,0.2-0.4,0.5-0.5,0.8S108.8,106.1,108.8,106.5z"/>
						<path class="st1" d="M117.4,111.2c-0.5,0-0.9-0.1-1.1-0.4s-0.3-0.7-0.3-1.3v-9.8h1.3v9.9c0,0.2,0,0.4,0.1,0.4
							c0.1,0.1,0.2,0.1,0.3,0.1c0,0,0.1,0,0.1,0c0,0,0.1,0,0.2,0l0.2,1c-0.1,0-0.2,0.1-0.3,0.1S117.6,111.2,117.4,111.2z"/>
						<path class="st1" d="M121.5,111.2c-0.5,0-0.9-0.1-1.1-0.4s-0.3-0.7-0.3-1.3v-9.8h1.3v9.9c0,0.2,0,0.4,0.1,0.4
							c0.1,0.1,0.2,0.1,0.3,0.1c0,0,0.1,0,0.1,0c0,0,0.1,0,0.2,0l0.2,1c-0.1,0-0.2,0.1-0.3,0.1S121.6,111.2,121.5,111.2z"/>
						<path class="st1" d="M127.3,111.2c-0.5,0-1-0.1-1.5-0.3c-0.5-0.2-0.8-0.5-1.2-0.8s-0.6-0.8-0.8-1.3c-0.2-0.5-0.3-1.1-0.3-1.7
							s0.1-1.2,0.3-1.7c0.2-0.5,0.5-0.9,0.8-1.3c0.3-0.4,0.7-0.6,1.1-0.8c0.4-0.2,0.8-0.3,1.3-0.3c0.5,0,0.9,0.1,1.3,0.3
							c0.4,0.2,0.7,0.4,1,0.7c0.3,0.3,0.5,0.7,0.6,1.2c0.1,0.4,0.2,1,0.2,1.5c0,0.1,0,0.3,0,0.4c0,0.1,0,0.2,0,0.3h-5.2
							c0.1,0.8,0.3,1.5,0.8,2s1.1,0.7,1.8,0.7c0.4,0,0.7-0.1,1-0.2c0.3-0.1,0.6-0.3,0.9-0.4l0.5,0.9c-0.3,0.2-0.7,0.4-1.1,0.6
							S127.8,111.2,127.3,111.2z M124.9,106.5h4.2c0-0.8-0.2-1.4-0.5-1.8c-0.3-0.4-0.8-0.6-1.4-0.6c-0.3,0-0.5,0.1-0.8,0.2
							s-0.5,0.3-0.7,0.5c-0.2,0.2-0.4,0.5-0.5,0.8S124.9,106.1,124.9,106.5z"/>
						<path class="st1" d="M132.1,111v-7.8h1.1l0.1,1.4h0c0.3-0.5,0.6-0.9,1-1.2c0.4-0.3,0.8-0.4,1.2-0.4c0.3,0,0.6,0.1,0.8,0.2
							l-0.3,1.2c-0.1,0-0.2-0.1-0.4-0.1c-0.1,0-0.2,0-0.4,0c-0.3,0-0.7,0.1-1,0.4s-0.7,0.7-0.9,1.4v5H132.1z"/>
					</g>
				</g>
				<g class="st0">
					<g>
						<path class="st1" d="M29.3,135.2c-0.4,0-0.7-0.1-1.1-0.3c-0.4-0.2-0.8-0.4-1.1-0.7h0l-0.1,0.8h-1.1v-11.4h1.3v3.1l0,1.4
							c0.4-0.3,0.7-0.6,1.2-0.8s0.8-0.3,1.3-0.3c0.5,0,0.9,0.1,1.3,0.3c0.4,0.2,0.7,0.5,1,0.8s0.5,0.8,0.6,1.2
							c0.1,0.5,0.2,1,0.2,1.6c0,0.7-0.1,1.3-0.3,1.8c-0.2,0.5-0.4,1-0.7,1.3c-0.3,0.4-0.7,0.6-1.1,0.8
							C30.1,135.1,29.7,135.2,29.3,135.2z M29,134.1c0.3,0,0.6-0.1,0.9-0.2c0.3-0.1,0.5-0.3,0.7-0.6c0.2-0.3,0.4-0.6,0.5-1
							s0.2-0.8,0.2-1.3c0-0.4,0-0.8-0.1-1.2c-0.1-0.4-0.2-0.7-0.4-0.9c-0.2-0.2-0.4-0.4-0.6-0.6c-0.3-0.1-0.6-0.2-0.9-0.2
							c-0.6,0-1.3,0.4-2.1,1.1v4.1c0.3,0.3,0.7,0.5,1,0.6C28.5,134,28.8,134.1,29,134.1z"/>
						<path class="st1" d="M36.2,135.2c-0.7,0-1.2-0.2-1.6-0.6S34,133.7,34,133c0-0.9,0.4-1.5,1.1-2c0.8-0.5,2-0.8,3.6-1
							c0-0.2,0-0.5-0.1-0.7c0-0.2-0.1-0.4-0.2-0.6c-0.1-0.2-0.3-0.3-0.5-0.4s-0.5-0.2-0.8-0.2c-0.4,0-0.9,0.1-1.3,0.3
							s-0.7,0.4-1.1,0.6l-0.5-0.9c0.4-0.2,0.8-0.5,1.3-0.7c0.5-0.2,1.1-0.3,1.7-0.3c0.9,0,1.6,0.3,2.1,0.9c0.4,0.6,0.6,1.4,0.6,2.3
							v4.8H39l-0.1-0.9h0c-0.4,0.3-0.8,0.6-1.2,0.8C37.2,135.1,36.7,135.2,36.2,135.2z M36.6,134.1c0.4,0,0.7-0.1,1.1-0.3
							s0.7-0.4,1.1-0.8v-2.2c-0.7,0.1-1.2,0.2-1.6,0.3c-0.4,0.1-0.8,0.3-1.1,0.4s-0.5,0.3-0.6,0.6s-0.2,0.4-0.2,0.7
							c0,0.4,0.1,0.8,0.4,1C35.9,134,36.2,134.1,36.6,134.1z"/>
						<path class="st1" d="M42.5,135v-7.8h1.1l0.1,1.1h0c0.4-0.4,0.8-0.7,1.2-0.9s0.9-0.4,1.4-0.4c0.8,0,1.4,0.3,1.8,0.8
							c0.4,0.5,0.6,1.3,0.6,2.3v4.9h-1.3v-4.8c0-0.7-0.1-1.3-0.4-1.6c-0.2-0.3-0.6-0.5-1.1-0.5c-0.4,0-0.8,0.1-1.1,0.3
							c-0.3,0.2-0.7,0.5-1.1,0.9v5.6H42.5z"/>
						<path class="st1" d="M51.3,135v-11.4h1.3v7.7h0l3.3-4.1h1.5l-2.6,3.1l3,4.7h-1.4l-2.3-3.7l-1.5,1.7v2H51.3z"/>
						<path class="st1" d="M64.2,135.2c-0.7,0-1.2-0.2-1.6-0.6s-0.6-0.9-0.6-1.6c0-0.9,0.4-1.5,1.1-2c0.8-0.5,2-0.8,3.6-1
							c0-0.2,0-0.5-0.1-0.7c0-0.2-0.1-0.4-0.2-0.6c-0.1-0.2-0.3-0.3-0.5-0.4s-0.5-0.2-0.8-0.2c-0.4,0-0.9,0.1-1.3,0.3
							s-0.7,0.4-1.1,0.6l-0.5-0.9c0.4-0.2,0.8-0.5,1.3-0.7c0.5-0.2,1.1-0.3,1.7-0.3c0.9,0,1.6,0.3,2.1,0.9c0.4,0.6,0.6,1.4,0.6,2.3
							v4.8h-1.1l-0.1-0.9h0c-0.4,0.3-0.8,0.6-1.2,0.8C65.1,135.1,64.7,135.2,64.2,135.2z M64.6,134.1c0.4,0,0.7-0.1,1.1-0.3
							s0.7-0.4,1.1-0.8v-2.2c-0.7,0.1-1.2,0.2-1.6,0.3c-0.4,0.1-0.8,0.3-1.1,0.4s-0.5,0.3-0.6,0.6s-0.2,0.4-0.2,0.7
							c0,0.4,0.1,0.8,0.4,1C63.9,134,64.2,134.1,64.6,134.1z"/>
						<path class="st1" d="M73.5,135.2c-0.5,0-1-0.1-1.4-0.3c-0.4-0.2-0.8-0.4-1.2-0.8c-0.3-0.3-0.6-0.8-0.8-1.3
							c-0.2-0.5-0.3-1.1-0.3-1.7c0-0.7,0.1-1.2,0.3-1.7c0.2-0.5,0.5-0.9,0.8-1.3c0.3-0.4,0.7-0.6,1.2-0.8c0.5-0.2,0.9-0.3,1.4-0.3
							c0.5,0,0.9,0.1,1.3,0.3c0.4,0.2,0.7,0.4,1,0.6l-0.7,0.9c-0.2-0.2-0.5-0.4-0.7-0.5c-0.3-0.1-0.5-0.2-0.8-0.2
							c-0.4,0-0.7,0.1-1,0.2c-0.3,0.1-0.6,0.3-0.8,0.6c-0.2,0.3-0.4,0.6-0.5,1s-0.2,0.8-0.2,1.2s0.1,0.9,0.2,1.2
							c0.1,0.4,0.3,0.7,0.5,0.9c0.2,0.3,0.5,0.5,0.8,0.6c0.3,0.1,0.6,0.2,1,0.2c0.4,0,0.7-0.1,1-0.2c0.3-0.2,0.6-0.3,0.8-0.6
							l0.6,0.9c-0.4,0.3-0.7,0.6-1.2,0.7C74.4,135.1,74,135.2,73.5,135.2z"/>
						<path class="st1" d="M80.5,135.2c-0.5,0-1-0.1-1.4-0.3c-0.4-0.2-0.8-0.4-1.2-0.8c-0.3-0.3-0.6-0.8-0.8-1.3
							c-0.2-0.5-0.3-1.1-0.3-1.7c0-0.7,0.1-1.2,0.3-1.7c0.2-0.5,0.5-0.9,0.8-1.3c0.3-0.4,0.7-0.6,1.2-0.8c0.5-0.2,0.9-0.3,1.4-0.3
							c0.5,0,0.9,0.1,1.3,0.3c0.4,0.2,0.7,0.4,1,0.6l-0.7,0.9c-0.2-0.2-0.5-0.4-0.7-0.5c-0.3-0.1-0.5-0.2-0.8-0.2
							c-0.4,0-0.7,0.1-1,0.2c-0.3,0.1-0.6,0.3-0.8,0.6c-0.2,0.3-0.4,0.6-0.5,1s-0.2,0.8-0.2,1.2s0.1,0.9,0.2,1.2
							c0.1,0.4,0.3,0.7,0.5,0.9c0.2,0.3,0.5,0.5,0.8,0.6c0.3,0.1,0.6,0.2,1,0.2c0.4,0,0.7-0.1,1-0.2c0.3-0.2,0.6-0.3,0.8-0.6
							l0.6,0.9c-0.4,0.3-0.7,0.6-1.2,0.7C81.4,135.1,80.9,135.2,80.5,135.2z"/>
						<path class="st1" d="M87.4,135.2c-0.5,0-0.9-0.1-1.4-0.3c-0.4-0.2-0.8-0.4-1.1-0.8c-0.3-0.3-0.6-0.8-0.8-1.3
							c-0.2-0.5-0.3-1.1-0.3-1.7c0-0.7,0.1-1.2,0.3-1.7c0.2-0.5,0.5-0.9,0.8-1.3c0.3-0.4,0.7-0.6,1.1-0.8c0.4-0.2,0.9-0.3,1.4-0.3
							s0.9,0.1,1.4,0.3c0.4,0.2,0.8,0.4,1.1,0.8c0.3,0.4,0.6,0.8,0.8,1.3c0.2,0.5,0.3,1.1,0.3,1.7c0,0.6-0.1,1.2-0.3,1.7
							c-0.2,0.5-0.5,0.9-0.8,1.3c-0.3,0.3-0.7,0.6-1.1,0.8S87.9,135.2,87.4,135.2z M87.4,134.1c0.3,0,0.6-0.1,0.9-0.2
							c0.3-0.1,0.5-0.3,0.7-0.6c0.2-0.3,0.3-0.6,0.5-0.9c0.1-0.4,0.2-0.8,0.2-1.2s-0.1-0.9-0.2-1.2c-0.1-0.4-0.3-0.7-0.5-1
							s-0.4-0.5-0.7-0.6c-0.3-0.1-0.6-0.2-0.9-0.2s-0.6,0.1-0.9,0.2c-0.3,0.1-0.5,0.3-0.7,0.6s-0.3,0.6-0.5,1s-0.2,0.8-0.2,1.2
							s0.1,0.9,0.2,1.2c0.1,0.4,0.3,0.7,0.5,0.9c0.2,0.3,0.4,0.5,0.7,0.6C86.8,134,87.1,134.1,87.4,134.1z"/>
						<path class="st1" d="M95.3,135.2c-0.8,0-1.4-0.3-1.8-0.8c-0.4-0.5-0.6-1.3-0.6-2.3v-4.9h1.3v4.8c0,0.7,0.1,1.3,0.3,1.6
							c0.2,0.3,0.6,0.5,1.1,0.5c0.4,0,0.8-0.1,1.1-0.3c0.3-0.2,0.7-0.5,1-1v-5.5h1.3v7.8H98l-0.1-1.2h0c-0.4,0.4-0.7,0.8-1.1,1
							C96.3,135.1,95.9,135.2,95.3,135.2z"/>
						<path class="st1" d="M101.7,135v-7.8h1.1l0.1,1.1h0c0.4-0.4,0.8-0.7,1.2-0.9s0.9-0.4,1.4-0.4c0.8,0,1.4,0.3,1.8,0.8
							c0.4,0.5,0.6,1.3,0.6,2.3v4.9h-1.3v-4.8c0-0.7-0.1-1.3-0.4-1.6c-0.2-0.3-0.6-0.5-1.1-0.5c-0.4,0-0.8,0.1-1.1,0.3
							c-0.3,0.2-0.7,0.5-1.1,0.9v5.6H101.7z"/>
						<path class="st1" d="M112.9,135.2c-0.4,0-0.8-0.1-1-0.2s-0.5-0.3-0.7-0.5c-0.2-0.2-0.3-0.5-0.4-0.8c-0.1-0.3-0.1-0.7-0.1-1.1
							v-4.3h-1.2v-1l1.2-0.1l0.2-2.2h1.1v2.2h2.1v1.1H112v4.3c0,0.5,0.1,0.9,0.3,1.1c0.2,0.3,0.5,0.4,0.9,0.4c0.1,0,0.3,0,0.4-0.1
							c0.2,0,0.3-0.1,0.4-0.1l0.3,1c-0.2,0.1-0.4,0.1-0.7,0.2S113.2,135.2,112.9,135.2z"/>
					</g>
				</g>
				<g id="Group-23" transform="translate(30.000000, 0.000000)">
					<g id="Group-7">
						<circle id="Oval-7-Copy" class="st2" cx="39.7" cy="39.7" r="39.7"/>
						<circle id="Oval-7" class="st3" cx="39.7" cy="39.7" r="34.7"/>
						<g id="Group-13" transform="translate(22.864244, 21.752470)">
							<g id="noun_x5F_Bank_x5F_1819871-_x28_1_x29_">
								<path id="Shape" class="st4" d="M14,26c-0.2,0-0.4,0.2-0.4,0.4v2c0,0.2,0.2,0.4,0.4,0.4h1h4.3h1c0.2,0,0.4-0.2,0.4-0.4v-2
									c0-0.2-0.2-0.4-0.4-0.4h-1v-10h1c0.2,0,0.4-0.2,0.4-0.4v-2c0-0.2-0.2-0.4-0.4-0.4h-1H15h-1c-0.2,0-0.4,0.2-0.4,0.4v2
									c0,0.2,0.2,0.4,0.4,0.4h1v10H14z"/>
								<path id="Shape_1_" class="st4" d="M1.5,30.1v1.6c0,0.2,0.2,0.4,0.4,0.4h30.5c0.2,0,0.4-0.2,0.4-0.4v-1.6
									c0-0.2-0.2-0.4-0.4-0.4H1.9C1.7,29.7,1.5,29.9,1.5,30.1z"/>
								<path id="Shape_2_" class="st4" d="M3.5,26c-0.2,0-0.4,0.2-0.4,0.4v2c0,0.2,0.2,0.4,0.4,0.4h1h4.3h1c0.2,0,0.4-0.2,0.4-0.4
									v-2c0-0.2-0.2-0.4-0.4-0.4h-1v-10h1c0.2,0,0.4-0.2,0.4-0.4v-2c0-0.2-0.2-0.4-0.4-0.4h-1H4.4h-1c-0.2,0-0.4,0.2-0.4,0.4v2
									c0,0.2,0.2,0.4,0.4,0.4h1v10H3.5z"/>
								<path id="Shape_3_" class="st4" d="M24.6,26c-0.2,0-0.4,0.2-0.4,0.4v2c0,0.2,0.2,0.4,0.4,0.4h1h4.3h1c0.2,0,0.4-0.2,0.4-0.4
									v-2c0-0.2-0.2-0.4-0.4-0.4h-1v-10h1c0.2,0,0.4-0.2,0.4-0.4v-2c0-0.2-0.2-0.4-0.4-0.4h-1h-4.3h-1c-0.2,0-0.4,0.2-0.4,0.4v2
									c0,0.2,0.2,0.4,0.4,0.4h1v10H24.6z"/>
								<path id="Shape_4_" class="st4" d="M33.8,33H0.5c-0.2,0-0.4,0.2-0.4,0.4V35c0,0.2,0.2,0.4,0.4,0.4h33.2
									c0.2,0,0.4-0.2,0.4-0.4v-1.6C34.2,33.2,34,33,33.8,33z"/>
								<path id="Shape_5_" class="st4" d="M1.3,12.2H33c0.2,0,0.4-0.2,0.4-0.4V8.6c0-0.2-0.2-0.5-0.3-0.6L17.5,0.1
									c-0.2-0.1-0.5-0.1-0.7,0L1.3,8.1C1.1,8.2,0.9,8.4,0.9,8.6v3.1C0.9,12,1.1,12.2,1.3,12.2z M17.1,2.4c2.2,0,4,1.8,4,4
									s-1.8,4-4,4c-2.2,0-4-1.8-4-4C13.1,4.2,14.9,2.4,17.1,2.4z"/>
							</g>
							<path id="Shape_6_" class="st4" d="M18.6,5.1C18.5,5,18.5,5,18.6,5.1l-0.6,0c0-0.2-0.1-0.3-0.2-0.5h0.8c0,0,0.1,0,0.1,0
								c0,0,0,0,0-0.1V4.1c0,0,0-0.1,0-0.1c0,0,0,0-0.1,0h-2.8c0,0-0.1,0-0.1,0c0,0,0,0,0,0.1v0.4c0,0,0,0.1,0,0.1s0,0,0.1,0h0.5
								c0.5,0,0.8,0.1,0.9,0.4h-1.4c0,0-0.1,0-0.1,0c0,0,0,0,0,0.1v0.3c0,0,0,0.1,0,0.1c0,0,0,0,0.1,0h1.4c0,0.2-0.2,0.3-0.3,0.4
								c-0.2,0.1-0.4,0.1-0.7,0.1h-0.4c0,0-0.1,0-0.1,0c0,0,0,0,0,0.1v0.4c0,0,0,0.1,0,0.1c0.4,0.5,1,1.1,1.7,1.9c0,0,0,0,0.1,0H18
								c0,0,0.1,0,0.1-0.1c0,0,0-0.1,0-0.1c-0.7-0.8-1.2-1.4-1.5-1.8c0.4,0,0.7-0.2,0.9-0.4c0.2-0.2,0.4-0.5,0.4-0.8h0.6
								c0,0,0.1,0,0.1,0c0,0,0,0,0-0.1L18.6,5.1C18.6,5.1,18.6,5.1,18.6,5.1z"/>
						</g>
					</g>
					<g id="Group-17" transform="translate(4.441379, 2.855172)">
						
							<linearGradient id="Oval-8_3_" gradientUnits="userSpaceOnUse" x1="-204.4975" y1="544.3835" x2="-203.8184" y2="545.079" gradientTransform="matrix(18.7172 0 0 -18.7172 3830.751 10205.1035)">
							<stop  offset="0" style="stop-color:#3067F0"/>
							<stop  offset="1" style="stop-color:#00D5DD"/>
						</linearGradient>
						<circle id="Oval-8" class="st5" cx="9.4" cy="9.4" r="9.4"/>
						<circle id="Oval-8-Copy" class="st6" cx="9.4" cy="9.4" r="9.4"/>
						<text transform="matrix(1 0 0 1 6.0909 13.5862)" class="st7 st8 st9">1</text>
					</g>
				</g>
			</g>
			<g id="Group-14" transform="translate(222.000000, 0.000000)">
				<g>
					<path class="st1" d="M4.8,111.2c-0.7,0-1.4-0.1-2-0.4c-0.6-0.3-1.2-0.7-1.6-1.1l0.8-0.9c0.4,0.4,0.8,0.7,1.3,1
						c0.5,0.2,1,0.4,1.6,0.4c0.7,0,1.2-0.2,1.6-0.5c0.4-0.3,0.6-0.7,0.6-1.2c0-0.3,0-0.5-0.1-0.7s-0.2-0.3-0.4-0.5
						c-0.2-0.1-0.3-0.3-0.6-0.4s-0.4-0.2-0.7-0.3l-1.5-0.7c-0.2-0.1-0.5-0.2-0.8-0.4s-0.5-0.3-0.7-0.5c-0.2-0.2-0.4-0.5-0.5-0.8
						c-0.1-0.3-0.2-0.6-0.2-1c0-0.4,0.1-0.8,0.2-1.1c0.2-0.3,0.4-0.6,0.7-0.9c0.3-0.2,0.6-0.4,1-0.6c0.4-0.1,0.8-0.2,1.3-0.2
						c0.6,0,1.2,0.1,1.7,0.4c0.5,0.2,1,0.6,1.4,0.9l-0.7,0.9c-0.3-0.3-0.7-0.6-1.1-0.7c-0.4-0.2-0.8-0.3-1.3-0.3
						c-0.6,0-1.1,0.1-1.4,0.4C3.1,102.2,3,102.5,3,103c0,0.3,0.1,0.5,0.2,0.6c0.1,0.2,0.2,0.3,0.4,0.5c0.2,0.1,0.4,0.3,0.6,0.4
						c0.2,0.1,0.4,0.2,0.6,0.3l1.5,0.6c0.3,0.1,0.6,0.3,0.8,0.4c0.3,0.2,0.5,0.4,0.7,0.6s0.3,0.5,0.5,0.8c0.1,0.3,0.2,0.6,0.2,1
						c0,0.4-0.1,0.8-0.2,1.2s-0.4,0.7-0.7,1c-0.3,0.3-0.7,0.5-1.1,0.6S5.3,111.2,4.8,111.2z"/>
					<path class="st1" d="M13.4,111.2c-0.5,0-1-0.1-1.5-0.3c-0.5-0.2-0.8-0.5-1.2-0.8s-0.6-0.8-0.8-1.3c-0.2-0.5-0.3-1.1-0.3-1.7
						s0.1-1.2,0.3-1.7c0.2-0.5,0.5-0.9,0.8-1.3c0.3-0.4,0.7-0.6,1.1-0.8c0.4-0.2,0.8-0.3,1.3-0.3c0.5,0,0.9,0.1,1.3,0.3
						c0.4,0.2,0.7,0.4,1,0.7c0.3,0.3,0.5,0.7,0.6,1.2c0.1,0.4,0.2,1,0.2,1.5c0,0.1,0,0.3,0,0.4c0,0.1,0,0.2,0,0.3H11
						c0.1,0.8,0.3,1.5,0.8,2s1.1,0.7,1.8,0.7c0.4,0,0.7-0.1,1-0.2c0.3-0.1,0.6-0.3,0.9-0.4l0.5,0.9c-0.3,0.2-0.7,0.4-1.1,0.6
						S14,111.2,13.4,111.2z M11,106.5h4.2c0-0.8-0.2-1.4-0.5-1.8c-0.3-0.4-0.8-0.6-1.4-0.6c-0.3,0-0.5,0.1-0.8,0.2s-0.5,0.3-0.7,0.5
						c-0.2,0.2-0.4,0.5-0.5,0.8S11,106.1,11,106.5z"/>
					<path class="st1" d="M19.6,111.2c-0.5,0-0.9-0.1-1.1-0.4s-0.3-0.7-0.3-1.3v-9.8h1.3v9.9c0,0.2,0,0.4,0.1,0.4
						c0.1,0.1,0.2,0.1,0.3,0.1c0,0,0.1,0,0.1,0c0,0,0.1,0,0.2,0l0.2,1c-0.1,0-0.2,0.1-0.3,0.1S19.8,111.2,19.6,111.2z"/>
					<path class="st1" d="M23.7,111.2c-0.5,0-0.9-0.1-1.1-0.4s-0.3-0.7-0.3-1.3v-9.8h1.3v9.9c0,0.2,0,0.4,0.1,0.4
						c0.1,0.1,0.2,0.1,0.3,0.1c0,0,0.1,0,0.1,0c0,0,0.1,0,0.2,0l0.2,1c-0.1,0-0.2,0.1-0.3,0.1S23.9,111.2,23.7,111.2z"/>
					<path class="st1" d="M29.5,111.2c-0.5,0-1-0.1-1.5-0.3c-0.5-0.2-0.8-0.5-1.2-0.8s-0.6-0.8-0.8-1.3c-0.2-0.5-0.3-1.1-0.3-1.7
						s0.1-1.2,0.3-1.7c0.2-0.5,0.5-0.9,0.8-1.3c0.3-0.4,0.7-0.6,1.1-0.8c0.4-0.2,0.8-0.3,1.3-0.3c0.5,0,0.9,0.1,1.3,0.3
						c0.4,0.2,0.7,0.4,1,0.7c0.3,0.3,0.5,0.7,0.6,1.2c0.1,0.4,0.2,1,0.2,1.5c0,0.1,0,0.3,0,0.4c0,0.1,0,0.2,0,0.3h-5.2
						c0.1,0.8,0.3,1.5,0.8,2s1.1,0.7,1.8,0.7c0.4,0,0.7-0.1,1-0.2c0.3-0.1,0.6-0.3,0.9-0.4l0.5,0.9c-0.3,0.2-0.7,0.4-1.1,0.6
						S30.1,111.2,29.5,111.2z M27.1,106.5h4.2c0-0.8-0.2-1.4-0.5-1.8c-0.3-0.4-0.8-0.6-1.4-0.6c-0.3,0-0.5,0.1-0.8,0.2
						s-0.5,0.3-0.7,0.5c-0.2,0.2-0.4,0.5-0.5,0.8S27.1,106.1,27.1,106.5z"/>
					<path class="st1" d="M34.3,111v-7.8h1.1l0.1,1.4h0c0.3-0.5,0.6-0.9,1-1.2c0.4-0.3,0.8-0.4,1.2-0.4c0.3,0,0.6,0.1,0.8,0.2
						l-0.3,1.2c-0.1,0-0.2-0.1-0.4-0.1c-0.1,0-0.2,0-0.4,0c-0.3,0-0.7,0.1-1,0.4s-0.7,0.7-0.9,1.4v5H34.3z"/>
					<path class="st1" d="M46.1,111.2c-0.5,0-1-0.1-1.4-0.3c-0.4-0.2-0.8-0.4-1.2-0.8c-0.3-0.3-0.6-0.8-0.8-1.3
						c-0.2-0.5-0.3-1.1-0.3-1.7c0-0.7,0.1-1.2,0.3-1.7c0.2-0.5,0.5-0.9,0.8-1.3c0.3-0.4,0.7-0.6,1.2-0.8c0.5-0.2,0.9-0.3,1.4-0.3
						c0.5,0,0.9,0.1,1.3,0.3c0.4,0.2,0.7,0.4,1,0.6l-0.7,0.9c-0.2-0.2-0.5-0.4-0.7-0.5c-0.3-0.1-0.5-0.2-0.8-0.2
						c-0.4,0-0.7,0.1-1,0.2c-0.3,0.1-0.6,0.3-0.8,0.6c-0.2,0.3-0.4,0.6-0.5,1s-0.2,0.8-0.2,1.2s0.1,0.9,0.2,1.2
						c0.1,0.4,0.3,0.7,0.5,0.9c0.2,0.3,0.5,0.5,0.8,0.6c0.3,0.1,0.6,0.2,1,0.2c0.4,0,0.7-0.1,1-0.2c0.3-0.2,0.6-0.3,0.8-0.6l0.6,0.9
						c-0.4,0.3-0.7,0.6-1.2,0.7C47.1,111.1,46.6,111.2,46.1,111.2z"/>
					<path class="st1" d="M53,111.2c-0.5,0-0.9-0.1-1.4-0.3c-0.4-0.2-0.8-0.4-1.1-0.8c-0.3-0.3-0.6-0.8-0.8-1.3
						c-0.2-0.5-0.3-1.1-0.3-1.7c0-0.7,0.1-1.2,0.3-1.7c0.2-0.5,0.5-0.9,0.8-1.3c0.3-0.4,0.7-0.6,1.1-0.8c0.4-0.2,0.9-0.3,1.4-0.3
						s0.9,0.1,1.4,0.3c0.4,0.2,0.8,0.4,1.1,0.8c0.3,0.4,0.6,0.8,0.8,1.3c0.2,0.5,0.3,1.1,0.3,1.7c0,0.6-0.1,1.2-0.3,1.7
						c-0.2,0.5-0.5,0.9-0.8,1.3c-0.3,0.3-0.7,0.6-1.1,0.8S53.5,111.2,53,111.2z M53,110.1c0.3,0,0.6-0.1,0.9-0.2
						c0.3-0.1,0.5-0.3,0.7-0.6c0.2-0.3,0.3-0.6,0.5-0.9c0.1-0.4,0.2-0.8,0.2-1.2s-0.1-0.9-0.2-1.2c-0.1-0.4-0.3-0.7-0.5-1
						s-0.4-0.5-0.7-0.6c-0.3-0.1-0.6-0.2-0.9-0.2s-0.6,0.1-0.9,0.2c-0.3,0.1-0.5,0.3-0.7,0.6s-0.3,0.6-0.5,1s-0.2,0.8-0.2,1.2
						s0.1,0.9,0.2,1.2c0.1,0.4,0.3,0.7,0.5,0.9c0.2,0.3,0.4,0.5,0.7,0.6C52.4,110,52.7,110.1,53,110.1z"/>
					<path class="st1" d="M58.7,111v-7.8h1.1l0.1,1.1h0c0.4-0.4,0.8-0.7,1.2-0.9s0.9-0.4,1.4-0.4c0.8,0,1.4,0.3,1.8,0.8
						c0.4,0.5,0.6,1.3,0.6,2.3v4.9h-1.3v-4.8c0-0.7-0.1-1.3-0.4-1.6c-0.2-0.3-0.6-0.5-1.1-0.5c-0.4,0-0.8,0.1-1.1,0.3
						c-0.3,0.2-0.7,0.5-1.1,0.9v5.6H58.7z"/>
					<path class="st1" d="M67.7,111v-6.7h-1.1v-1l1.1-0.1V102c0-0.8,0.2-1.4,0.6-1.9c0.4-0.5,0.9-0.7,1.7-0.7c0.2,0,0.5,0,0.7,0.1
						s0.4,0.1,0.6,0.2l-0.3,1c-0.3-0.1-0.6-0.2-0.9-0.2c-0.7,0-1.1,0.5-1.1,1.5v1.2h1.6v1.1H69v6.7H67.7z"/>
					<path class="st1" d="M72.8,101.6c-0.3,0-0.5-0.1-0.6-0.2c-0.2-0.2-0.3-0.4-0.3-0.6c0-0.3,0.1-0.5,0.3-0.6
						c0.2-0.2,0.4-0.2,0.6-0.2c0.3,0,0.5,0.1,0.6,0.2c0.2,0.2,0.3,0.4,0.3,0.6c0,0.2-0.1,0.4-0.3,0.6
						C73.3,101.5,73,101.6,72.8,101.6z M72.1,111v-7.8h1.3v7.8H72.1z"/>
					<path class="st1" d="M76.1,111v-7.8h1.1l0.1,1.4h0c0.3-0.5,0.6-0.9,1-1.2c0.4-0.3,0.8-0.4,1.2-0.4c0.3,0,0.6,0.1,0.8,0.2
						l-0.3,1.2c-0.1,0-0.2-0.1-0.4-0.1c-0.1,0-0.2,0-0.4,0c-0.3,0-0.7,0.1-1,0.4s-0.7,0.7-0.9,1.4v5H76.1z"/>
					<path class="st1" d="M81.6,111v-7.8h1.1l0.1,1.1h0c0.3-0.4,0.7-0.7,1.1-0.9s0.8-0.4,1.3-0.4c0.6,0,1.1,0.1,1.4,0.4
						c0.3,0.3,0.6,0.6,0.7,1.1c0.4-0.4,0.8-0.8,1.2-1.1c0.4-0.3,0.9-0.4,1.3-0.4c0.8,0,1.4,0.3,1.8,0.8s0.6,1.3,0.6,2.3v4.9H91v-4.8
						c0-0.7-0.1-1.3-0.4-1.6c-0.2-0.3-0.6-0.5-1.1-0.5c-0.6,0-1.2,0.4-2,1.2v5.6h-1.3v-4.8c0-0.7-0.1-1.3-0.4-1.6
						c-0.2-0.3-0.6-0.5-1.1-0.5c-0.6,0-1.2,0.4-2,1.2v5.6H81.6z"/>
					<path class="st1" d="M96.9,111.2c-0.6,0-1.1-0.1-1.6-0.3c-0.5-0.2-0.9-0.5-1.3-0.8l0.7-0.9c0.3,0.3,0.7,0.5,1,0.7
						s0.8,0.3,1.2,0.3c0.5,0,0.9-0.1,1.2-0.4c0.3-0.2,0.4-0.5,0.4-0.9c0-0.2-0.1-0.4-0.2-0.5c-0.1-0.1-0.2-0.3-0.4-0.4
						c-0.2-0.1-0.4-0.2-0.6-0.3c-0.2-0.1-0.4-0.2-0.6-0.3c-0.3-0.1-0.6-0.2-0.8-0.3c-0.3-0.1-0.5-0.3-0.7-0.4
						c-0.2-0.2-0.4-0.4-0.5-0.6s-0.2-0.5-0.2-0.8c0-0.3,0.1-0.6,0.2-0.9c0.1-0.3,0.3-0.5,0.5-0.7s0.5-0.4,0.8-0.5
						c0.3-0.1,0.7-0.2,1.1-0.2c0.5,0,0.9,0.1,1.4,0.3c0.4,0.2,0.8,0.4,1.1,0.6l-0.6,0.8c-0.3-0.2-0.5-0.4-0.8-0.5s-0.6-0.2-0.9-0.2
						c-0.5,0-0.9,0.1-1.1,0.3c-0.2,0.2-0.3,0.5-0.3,0.8c0,0.2,0,0.3,0.1,0.5c0.1,0.1,0.2,0.2,0.4,0.4s0.3,0.2,0.6,0.3
						c0.2,0.1,0.4,0.2,0.6,0.2c0.3,0.1,0.6,0.2,0.8,0.3c0.3,0.1,0.5,0.3,0.8,0.4c0.2,0.2,0.4,0.4,0.6,0.6c0.1,0.3,0.2,0.6,0.2,0.9
						c0,0.3-0.1,0.6-0.2,0.9c-0.1,0.3-0.3,0.5-0.5,0.7c-0.2,0.2-0.5,0.4-0.9,0.5C97.8,111.1,97.4,111.2,96.9,111.2z"/>
					<path class="st1" d="M104.8,114.3v-11.1h1.1l0.1,0.9h0c0.4-0.3,0.7-0.6,1.2-0.8c0.4-0.2,0.9-0.3,1.3-0.3c0.5,0,0.9,0.1,1.3,0.3
						c0.4,0.2,0.7,0.5,1,0.8s0.5,0.8,0.6,1.2s0.2,1,0.2,1.6c0,0.7-0.1,1.3-0.3,1.8c-0.2,0.5-0.4,1-0.7,1.3c-0.3,0.4-0.7,0.6-1.1,0.8
						s-0.8,0.3-1.3,0.3c-0.4,0-0.7-0.1-1.1-0.2s-0.7-0.4-1.1-0.7l0,1.4v2.6H104.8z M108,110.1c0.3,0,0.6-0.1,0.9-0.2
						c0.3-0.1,0.5-0.3,0.7-0.6c0.2-0.3,0.4-0.6,0.5-1c0.1-0.4,0.2-0.8,0.2-1.3c0-0.4,0-0.8-0.1-1.2c-0.1-0.4-0.2-0.7-0.4-0.9
						c-0.2-0.2-0.4-0.4-0.6-0.6c-0.3-0.1-0.6-0.2-0.9-0.2c-0.3,0-0.7,0.1-1,0.3s-0.7,0.4-1.1,0.8v4.1c0.4,0.3,0.7,0.5,1,0.6
						C107.4,110,107.7,110.1,108,110.1z"/>
					<path class="st1" d="M115.2,111.2c-0.7,0-1.2-0.2-1.6-0.6c-0.4-0.4-0.6-0.9-0.6-1.6c0-0.9,0.4-1.5,1.1-2c0.8-0.5,2-0.8,3.6-1
						c0-0.2,0-0.5-0.1-0.7c0-0.2-0.1-0.4-0.2-0.6c-0.1-0.2-0.3-0.3-0.5-0.4s-0.5-0.2-0.8-0.2c-0.4,0-0.9,0.1-1.3,0.3
						s-0.7,0.4-1.1,0.6l-0.5-0.9c0.4-0.2,0.8-0.5,1.3-0.7c0.5-0.2,1.1-0.3,1.7-0.3c0.9,0,1.6,0.3,2.1,0.9c0.4,0.6,0.6,1.4,0.6,2.3
						v4.8H118l-0.1-0.9h0c-0.4,0.3-0.8,0.6-1.2,0.8C116.2,111.1,115.7,111.2,115.2,111.2z M115.6,110.1c0.4,0,0.7-0.1,1.1-0.3
						c0.3-0.2,0.7-0.4,1.1-0.8v-2.2c-0.7,0.1-1.2,0.2-1.6,0.3c-0.4,0.1-0.8,0.3-1.1,0.4c-0.3,0.2-0.5,0.3-0.6,0.6
						c-0.1,0.2-0.2,0.4-0.2,0.7c0,0.4,0.1,0.8,0.4,1C114.9,110,115.2,110.1,115.6,110.1z"/>
					<path class="st1" d="M121.6,114.3c-0.2,0-0.3,0-0.5,0s-0.3-0.1-0.4-0.1l0.3-1c0.1,0,0.2,0,0.3,0.1s0.2,0,0.3,0
						c0.4,0,0.8-0.2,1.1-0.5c0.3-0.3,0.5-0.7,0.7-1.2l0.2-0.6l-3.1-7.8h1.4l1.6,4.3c0.1,0.3,0.2,0.7,0.4,1.1
						c0.1,0.4,0.3,0.7,0.4,1.1h0.1c0.1-0.4,0.2-0.7,0.3-1.1s0.2-0.7,0.3-1.1l1.4-4.3h1.3l-2.9,8.4c-0.1,0.4-0.3,0.7-0.5,1.1
						c-0.2,0.3-0.4,0.6-0.6,0.9c-0.2,0.2-0.5,0.4-0.8,0.6C122.4,114.3,122,114.3,121.6,114.3z"/>
					<path class="st1" d="M129,111v-7.8h1.1l0.1,1.1h0c0.3-0.4,0.7-0.7,1.1-0.9c0.4-0.3,0.8-0.4,1.3-0.4c0.6,0,1.1,0.1,1.4,0.4
						c0.3,0.3,0.6,0.6,0.7,1.1c0.4-0.4,0.8-0.8,1.2-1.1c0.4-0.3,0.9-0.4,1.3-0.4c0.8,0,1.4,0.3,1.8,0.8c0.4,0.5,0.6,1.3,0.6,2.3v4.9
						h-1.3v-4.8c0-0.7-0.1-1.3-0.4-1.6c-0.2-0.3-0.6-0.5-1.1-0.5c-0.6,0-1.2,0.4-2,1.2v5.6h-1.3v-4.8c0-0.7-0.1-1.3-0.4-1.6
						c-0.2-0.3-0.6-0.5-1.1-0.5c-0.6,0-1.2,0.4-2,1.2v5.6H129z"/>
					<path class="st1" d="M145.4,111.2c-0.5,0-1-0.1-1.5-0.3c-0.5-0.2-0.8-0.5-1.2-0.8s-0.6-0.8-0.8-1.3c-0.2-0.5-0.3-1.1-0.3-1.7
						s0.1-1.2,0.3-1.7c0.2-0.5,0.5-0.9,0.8-1.3c0.3-0.4,0.7-0.6,1.1-0.8c0.4-0.2,0.8-0.3,1.3-0.3c0.5,0,0.9,0.1,1.3,0.3
						c0.4,0.2,0.7,0.4,1,0.7c0.3,0.3,0.5,0.7,0.6,1.2c0.1,0.4,0.2,1,0.2,1.5c0,0.1,0,0.3,0,0.4c0,0.1,0,0.2,0,0.3H143
						c0.1,0.8,0.3,1.5,0.8,2s1.1,0.7,1.8,0.7c0.4,0,0.7-0.1,1-0.2c0.3-0.1,0.6-0.3,0.9-0.4l0.5,0.9c-0.3,0.2-0.7,0.4-1.1,0.6
						S145.9,111.2,145.4,111.2z M142.9,106.5h4.2c0-0.8-0.2-1.4-0.5-1.8c-0.3-0.4-0.8-0.6-1.4-0.6c-0.3,0-0.5,0.1-0.8,0.2
						c-0.3,0.1-0.5,0.3-0.7,0.5c-0.2,0.2-0.4,0.5-0.5,0.8C143.1,105.8,143,106.1,142.9,106.5z"/>
					<path class="st1" d="M150.2,111v-7.8h1.1l0.1,1.1h0c0.4-0.4,0.8-0.7,1.2-0.9c0.4-0.3,0.9-0.4,1.4-0.4c0.8,0,1.4,0.3,1.8,0.8
						c0.4,0.5,0.6,1.3,0.6,2.3v4.9h-1.3v-4.8c0-0.7-0.1-1.3-0.4-1.6s-0.6-0.5-1.1-0.5c-0.4,0-0.8,0.1-1.1,0.3
						c-0.3,0.2-0.7,0.5-1.1,0.9v5.6H150.2z"/>
					<path class="st1" d="M161.4,111.2c-0.4,0-0.8-0.1-1-0.2c-0.3-0.1-0.5-0.3-0.7-0.5c-0.2-0.2-0.3-0.5-0.4-0.8
						c-0.1-0.3-0.1-0.7-0.1-1.1v-4.3H158v-1l1.2-0.1l0.2-2.2h1.1v2.2h2.1v1.1h-2.1v4.3c0,0.5,0.1,0.9,0.3,1.1
						c0.2,0.3,0.5,0.4,0.9,0.4c0.1,0,0.3,0,0.4-0.1c0.2,0,0.3-0.1,0.4-0.1l0.3,1c-0.2,0.1-0.4,0.1-0.7,0.2
						C161.9,111.2,161.6,111.2,161.4,111.2z"/>
				</g>
				<g id="Group-21" transform="translate(42.000000, 0.000000)">
					<g id="Group-6">
						<circle id="Oval-7-Copy_1_" class="st2" cx="39.7" cy="39.7" r="39.7"/>
						<g id="Group-9" transform="translate(5.001553, 5.001553)">
							<circle id="Oval-7_1_" class="st3" cx="34.7" cy="34.7" r="34.7"/>
							<g id="step2_icon" transform="translate(17.862690, 17.148183)">
								<g id="noun_coins-with-hand_1245260" transform="translate(0.000000, 4.342886)">
									<g id="Group">
										<g id="Combined-Shape">
											<g transform="translate(0.104064, 0.000000)">
												<path class="st4" d="M20.8,1c0,0.2,0,0.5,0,0.7c0,3.9,3.1,7,6.9,7c0.4,0,0.9,0,1.3-0.1c1,2,1.5,4.2,1.5,6.6
													c0,8.4-6.8,15.3-15.2,15.3S0,23.7,0,15.3S6.8,0,15.2,0C17.2,0,19.1,0.4,20.8,1z M20,11.1C19.9,11,19.8,11,19.7,11h-1.8
													c-0.1-0.6-0.4-1.1-0.7-1.6h2.5c0.1,0,0.2,0,0.2-0.1c0.1-0.1,0.1-0.1,0.1-0.2V8c0-0.1,0-0.2-0.1-0.2
													c-0.1-0.1-0.1-0.1-0.2-0.1h-9c-0.1,0-0.2,0-0.2,0.1c-0.1,0.1-0.1,0.1-0.1,0.2v1.4c0,0.1,0,0.2,0.1,0.2
													c0.1,0.1,0.1,0.1,0.2,0.1h1.6c1.5,0,2.5,0.4,2.9,1.2h-4.5c-0.1,0-0.2,0-0.2,0.1c-0.1,0.1-0.1,0.1-0.1,0.2v1.1
													c0,0.1,0,0.2,0.1,0.2c0.1,0.1,0.1,0.1,0.2,0.1h4.6c-0.2,0.6-0.5,1-1.1,1.4c-0.6,0.3-1.3,0.5-2.3,0.5h-1.2
													c-0.1,0-0.2,0-0.2,0.1c-0.1,0.1-0.1,0.1-0.1,0.2v1.4c0,0.1,0,0.2,0.1,0.2c1.4,1.5,3.2,3.5,5.4,6.2
													c0.1,0.1,0.2,0.1,0.3,0.1h2.1c0.2,0,0.3-0.1,0.3-0.2c0.1-0.1,0.1-0.3,0-0.4c-2.1-2.6-3.8-4.5-5-5.8
													c1.2-0.1,2.2-0.5,3-1.2c0.8-0.7,1.2-1.5,1.4-2.5h1.8c0.1,0,0.2,0,0.2-0.1c0.1-0.1,0.1-0.1,0.1-0.2v-1.1
													C20.1,11.2,20,11.2,20,11.1z"/>
											</g>
										</g>
									</g>
								</g>
								<g id="Group-10" transform="translate(21.475555, 0.000000)">
									<path id="Combined-Shape_1_" class="st4" d="M6.4,12.3c-3.4,0-6.2-2.8-6.2-6.2S3,0,6.4,0s6.2,2.8,6.2,6.2
										S9.8,12.3,6.4,12.3z M8.8,3.2L4.7,7.7L3.2,6.1C3,5.9,2.6,5.9,2.4,6.1C2.2,6.4,2.2,6.7,2.4,7l1.9,2.1c0.2,0.2,0.6,0.2,0.8,0
										l4.6-5c0.2-0.2,0.2-0.6,0-0.9C9.4,3,9.1,3,8.8,3.2z"/>
									<g id="tick" transform="translate(2.437526, 2.895258)">
									</g>
								</g>
							</g>
						</g>
					</g>
					<g id="Group-17-Copy" transform="translate(4.441379, 2.855172)">
						<circle id="Oval-8_1_" class="st4" cx="9.4" cy="9.4" r="9.4"/>
						<text transform="matrix(1 0 0 1 6.0909 13.5862)" class="st7 st8 st9">2</text>
					</g>
				</g>
			</g>
			<g id="Group-15" transform="translate(441.000000, 0.000000)">
				<g class="st0">
					<g>
						<path class="st1" d="M4.7,111l-2.2-10.5h1.4l1.1,5.7c0.1,0.6,0.2,1.1,0.3,1.7s0.2,1.1,0.3,1.7h0.1c0.1-0.6,0.2-1.1,0.4-1.7
							c0.1-0.6,0.3-1.1,0.4-1.7l1.5-5.7h1.2l1.5,5.7c0.1,0.6,0.3,1.1,0.4,1.7s0.3,1.1,0.4,1.7h0.1c0.1-0.6,0.2-1.1,0.3-1.7
							c0.1-0.6,0.2-1.1,0.3-1.7l1.1-5.7h1.3L12.2,111h-1.6L9,104.7c-0.1-0.4-0.2-0.8-0.3-1.2s-0.2-0.8-0.2-1.2H8.4
							c-0.1,0.4-0.2,0.8-0.3,1.2c-0.1,0.4-0.2,0.8-0.3,1.2L6.3,111H4.7z"/>
						<path class="st1" d="M17.6,111.2c-0.7,0-1.2-0.2-1.6-0.6s-0.6-0.9-0.6-1.6c0-0.9,0.4-1.5,1.1-2c0.8-0.5,2-0.8,3.6-1
							c0-0.2,0-0.5-0.1-0.7c0-0.2-0.1-0.4-0.2-0.6c-0.1-0.2-0.3-0.3-0.5-0.4c-0.2-0.1-0.5-0.2-0.8-0.2c-0.4,0-0.9,0.1-1.3,0.3
							s-0.7,0.4-1.1,0.6l-0.5-0.9c0.4-0.2,0.8-0.5,1.3-0.7c0.5-0.2,1.1-0.3,1.7-0.3c0.9,0,1.6,0.3,2.1,0.9c0.4,0.6,0.6,1.4,0.6,2.3
							v4.8h-1.1l-0.1-0.9h0c-0.4,0.3-0.8,0.6-1.2,0.8C18.5,111.1,18.1,111.2,17.6,111.2z M18,110.1c0.4,0,0.7-0.1,1.1-0.3
							c0.3-0.2,0.7-0.4,1.1-0.8v-2.2c-0.7,0.1-1.2,0.2-1.6,0.3c-0.4,0.1-0.8,0.3-1.1,0.4s-0.5,0.3-0.6,0.6c-0.1,0.2-0.2,0.4-0.2,0.7
							c0,0.4,0.1,0.8,0.4,1C17.2,110,17.6,110.1,18,110.1z"/>
						<path class="st1" d="M23,111v-0.7l4.1-6h-3.6v-1.1h5.3v0.7l-4.1,6h4.2v1.1H23z"/>
						<path class="st1" d="M31.3,101.6c-0.3,0-0.5-0.1-0.6-0.2s-0.3-0.4-0.3-0.6c0-0.3,0.1-0.5,0.3-0.6s0.4-0.2,0.6-0.2
							c0.3,0,0.5,0.1,0.6,0.2c0.2,0.2,0.3,0.4,0.3,0.6c0,0.2-0.1,0.4-0.3,0.6C31.8,101.5,31.6,101.6,31.3,101.6z M30.6,111v-7.8H32
							v7.8H30.6z"/>
						<path class="st1" d="M34.6,111v-7.8h1.1l0.1,1.4h0c0.3-0.5,0.6-0.9,1-1.2c0.4-0.3,0.8-0.4,1.2-0.4c0.3,0,0.6,0.1,0.8,0.2
							l-0.3,1.2c-0.1,0-0.2-0.1-0.4-0.1c-0.1,0-0.2,0-0.4,0c-0.3,0-0.7,0.1-1,0.4s-0.7,0.7-0.9,1.4v5H34.6z"/>
						<path class="st1" d="M39.1,111l3.1-5.4l-2.8-5.1h1.5l1.4,2.7c0.1,0.2,0.3,0.5,0.4,0.7c0.1,0.2,0.3,0.5,0.4,0.8H43
							c0.1-0.3,0.3-0.6,0.4-0.8c0.1-0.2,0.2-0.5,0.4-0.7l1.4-2.7h1.4l-2.9,5.1l3.1,5.4h-1.5l-1.5-2.8c-0.1-0.3-0.3-0.5-0.4-0.8
							s-0.3-0.6-0.5-0.9h-0.1c-0.1,0.3-0.3,0.6-0.4,0.9s-0.3,0.5-0.4,0.8l-1.5,2.8H39.1z"/>
						<path class="st1" d="M51.5,111v-7.8h1.1l0.1,1.4h0c0.3-0.5,0.6-0.9,1-1.2c0.4-0.3,0.8-0.4,1.2-0.4c0.3,0,0.6,0.1,0.8,0.2
							l-0.3,1.2c-0.1,0-0.2-0.1-0.4-0.1c-0.1,0-0.2,0-0.4,0c-0.3,0-0.7,0.1-1,0.4s-0.7,0.7-0.9,1.4v5H51.5z"/>
						<path class="st1" d="M60.1,111.2c-0.5,0-1-0.1-1.5-0.3c-0.5-0.2-0.8-0.5-1.2-0.8s-0.6-0.8-0.8-1.3c-0.2-0.5-0.3-1.1-0.3-1.7
							s0.1-1.2,0.3-1.7s0.5-0.9,0.8-1.3c0.3-0.4,0.7-0.6,1.1-0.8c0.4-0.2,0.8-0.3,1.3-0.3c0.5,0,0.9,0.1,1.3,0.3
							c0.4,0.2,0.7,0.4,1,0.7c0.3,0.3,0.5,0.7,0.6,1.2s0.2,1,0.2,1.5c0,0.1,0,0.3,0,0.4c0,0.1,0,0.2,0,0.3h-5.2
							c0.1,0.8,0.3,1.5,0.8,2s1.1,0.7,1.8,0.7c0.4,0,0.7-0.1,1-0.2c0.3-0.1,0.6-0.3,0.9-0.4l0.5,0.9c-0.3,0.2-0.7,0.4-1.1,0.6
							S60.6,111.2,60.1,111.2z M57.6,106.5h4.2c0-0.8-0.2-1.4-0.5-1.8c-0.3-0.4-0.8-0.6-1.4-0.6c-0.3,0-0.5,0.1-0.8,0.2
							c-0.2,0.1-0.5,0.3-0.7,0.5s-0.4,0.5-0.5,0.8S57.7,106.1,57.6,106.5z"/>
						<path class="st1" d="M66.3,111.2c-0.5,0-0.9-0.1-1.1-0.4s-0.3-0.7-0.3-1.3v-9.8h1.3v9.9c0,0.2,0,0.4,0.1,0.4
							c0.1,0.1,0.2,0.1,0.3,0.1c0,0,0.1,0,0.1,0c0,0,0.1,0,0.2,0l0.2,1c-0.1,0-0.2,0.1-0.3,0.1S66.4,111.2,66.3,111.2z"/>
						<path class="st1" d="M72.1,111.2c-0.5,0-1-0.1-1.5-0.3c-0.5-0.2-0.8-0.5-1.2-0.8s-0.6-0.8-0.8-1.3c-0.2-0.5-0.3-1.1-0.3-1.7
							s0.1-1.2,0.3-1.7s0.5-0.9,0.8-1.3c0.3-0.4,0.7-0.6,1.1-0.8c0.4-0.2,0.8-0.3,1.3-0.3c0.5,0,0.9,0.1,1.3,0.3
							c0.4,0.2,0.7,0.4,1,0.7c0.3,0.3,0.5,0.7,0.6,1.2s0.2,1,0.2,1.5c0,0.1,0,0.3,0,0.4c0,0.1,0,0.2,0,0.3h-5.2
							c0.1,0.8,0.3,1.5,0.8,2s1.1,0.7,1.8,0.7c0.4,0,0.7-0.1,1-0.2c0.3-0.1,0.6-0.3,0.9-0.4l0.5,0.9c-0.3,0.2-0.7,0.4-1.1,0.6
							S72.6,111.2,72.1,111.2z M69.6,106.5h4.2c0-0.8-0.2-1.4-0.5-1.8c-0.3-0.4-0.8-0.6-1.4-0.6c-0.3,0-0.5,0.1-0.8,0.2
							c-0.2,0.1-0.5,0.3-0.7,0.5s-0.4,0.5-0.5,0.8S69.7,106.1,69.6,106.5z"/>
						<path class="st1" d="M78.4,111.2c-0.7,0-1.2-0.2-1.6-0.6s-0.6-0.9-0.6-1.6c0-0.9,0.4-1.5,1.1-2c0.8-0.5,2-0.8,3.6-1
							c0-0.2,0-0.5-0.1-0.7c0-0.2-0.1-0.4-0.2-0.6c-0.1-0.2-0.3-0.3-0.5-0.4c-0.2-0.1-0.5-0.2-0.8-0.2c-0.4,0-0.9,0.1-1.3,0.3
							s-0.7,0.4-1.1,0.6l-0.5-0.9c0.4-0.2,0.8-0.5,1.3-0.7c0.5-0.2,1.1-0.3,1.7-0.3c0.9,0,1.6,0.3,2.1,0.9c0.4,0.6,0.6,1.4,0.6,2.3
							v4.8h-1.1l-0.1-0.9h0c-0.4,0.3-0.8,0.6-1.2,0.8C79.4,111.1,78.9,111.2,78.4,111.2z M78.8,110.1c0.4,0,0.7-0.1,1.1-0.3
							c0.3-0.2,0.7-0.4,1.1-0.8v-2.2c-0.7,0.1-1.2,0.2-1.6,0.3c-0.4,0.1-0.8,0.3-1.1,0.4s-0.5,0.3-0.6,0.6c-0.1,0.2-0.2,0.4-0.2,0.7
							c0,0.4,0.1,0.8,0.4,1C78.1,110,78.4,110.1,78.8,110.1z"/>
						<path class="st1" d="M86.8,111.2c-0.6,0-1.1-0.1-1.6-0.3c-0.5-0.2-0.9-0.5-1.3-0.8l0.7-0.9c0.3,0.3,0.7,0.5,1,0.7
							s0.8,0.3,1.2,0.3c0.5,0,0.9-0.1,1.2-0.4c0.3-0.2,0.4-0.5,0.4-0.9c0-0.2-0.1-0.4-0.2-0.5s-0.2-0.3-0.4-0.4
							c-0.2-0.1-0.4-0.2-0.6-0.3c-0.2-0.1-0.4-0.2-0.6-0.3c-0.3-0.1-0.6-0.2-0.8-0.3c-0.3-0.1-0.5-0.3-0.7-0.4s-0.4-0.4-0.5-0.6
							s-0.2-0.5-0.2-0.8c0-0.3,0.1-0.6,0.2-0.9c0.1-0.3,0.3-0.5,0.5-0.7c0.2-0.2,0.5-0.4,0.8-0.5c0.3-0.1,0.7-0.2,1.1-0.2
							c0.5,0,0.9,0.1,1.4,0.3s0.8,0.4,1.1,0.6l-0.6,0.8c-0.3-0.2-0.5-0.4-0.8-0.5c-0.3-0.1-0.6-0.2-0.9-0.2c-0.5,0-0.9,0.1-1.1,0.3
							c-0.2,0.2-0.3,0.5-0.3,0.8c0,0.2,0,0.3,0.1,0.5c0.1,0.1,0.2,0.2,0.4,0.4s0.3,0.2,0.6,0.3c0.2,0.1,0.4,0.2,0.6,0.2
							c0.3,0.1,0.6,0.2,0.8,0.3c0.3,0.1,0.5,0.3,0.8,0.4c0.2,0.2,0.4,0.4,0.6,0.6s0.2,0.6,0.2,0.9c0,0.3-0.1,0.6-0.2,0.9
							c-0.1,0.3-0.3,0.5-0.5,0.7c-0.2,0.2-0.5,0.4-0.9,0.5C87.6,111.1,87.2,111.2,86.8,111.2z"/>
						<path class="st1" d="M94.6,111.2c-0.5,0-1-0.1-1.5-0.3c-0.5-0.2-0.8-0.5-1.2-0.8s-0.6-0.8-0.8-1.3c-0.2-0.5-0.3-1.1-0.3-1.7
							s0.1-1.2,0.3-1.7s0.5-0.9,0.8-1.3c0.3-0.4,0.7-0.6,1.1-0.8c0.4-0.2,0.8-0.3,1.3-0.3c0.5,0,0.9,0.1,1.3,0.3
							c0.4,0.2,0.7,0.4,1,0.7c0.3,0.3,0.5,0.7,0.6,1.2s0.2,1,0.2,1.5c0,0.1,0,0.3,0,0.4c0,0.1,0,0.2,0,0.3h-5.2
							c0.1,0.8,0.3,1.5,0.8,2c0.5,0.5,1.1,0.7,1.8,0.7c0.4,0,0.7-0.1,1-0.2c0.3-0.1,0.6-0.3,0.9-0.4l0.5,0.9
							c-0.3,0.2-0.7,0.4-1.1,0.6S95.1,111.2,94.6,111.2z M92.1,106.5h4.2c0-0.8-0.2-1.4-0.5-1.8c-0.3-0.4-0.8-0.6-1.4-0.6
							c-0.3,0-0.5,0.1-0.8,0.2s-0.5,0.3-0.7,0.5c-0.2,0.2-0.4,0.5-0.5,0.8C92.3,105.8,92.2,106.1,92.1,106.5z"/>
						<path class="st1" d="M101.4,111.2c-0.6,0-1.1-0.1-1.6-0.3c-0.5-0.2-0.9-0.5-1.3-0.8l0.7-0.9c0.3,0.3,0.7,0.5,1,0.7
							s0.8,0.3,1.2,0.3c0.5,0,0.9-0.1,1.2-0.4c0.3-0.2,0.4-0.5,0.4-0.9c0-0.2-0.1-0.4-0.2-0.5c-0.1-0.1-0.2-0.3-0.4-0.4
							c-0.2-0.1-0.4-0.2-0.6-0.3c-0.2-0.1-0.4-0.2-0.6-0.3c-0.3-0.1-0.6-0.2-0.8-0.3c-0.3-0.1-0.5-0.3-0.7-0.4
							c-0.2-0.2-0.4-0.4-0.5-0.6s-0.2-0.5-0.2-0.8c0-0.3,0.1-0.6,0.2-0.9c0.1-0.3,0.3-0.5,0.5-0.7c0.2-0.2,0.5-0.4,0.8-0.5
							c0.3-0.1,0.7-0.2,1.1-0.2c0.5,0,0.9,0.1,1.4,0.3s0.8,0.4,1.1,0.6l-0.6,0.8c-0.3-0.2-0.5-0.4-0.8-0.5c-0.3-0.1-0.6-0.2-0.9-0.2
							c-0.5,0-0.9,0.1-1.1,0.3c-0.2,0.2-0.3,0.5-0.3,0.8c0,0.2,0,0.3,0.1,0.5c0.1,0.1,0.2,0.2,0.4,0.4s0.3,0.2,0.6,0.3
							c0.2,0.1,0.4,0.2,0.6,0.2c0.3,0.1,0.6,0.2,0.8,0.3c0.3,0.1,0.5,0.3,0.8,0.4c0.2,0.2,0.4,0.4,0.6,0.6s0.2,0.6,0.2,0.9
							c0,0.3-0.1,0.6-0.2,0.9c-0.1,0.3-0.3,0.5-0.5,0.7c-0.2,0.2-0.5,0.4-0.9,0.5C102.3,111.1,101.8,111.2,101.4,111.2z"/>
						<path class="st1" d="M110.7,111.2c-0.5,0-0.9-0.1-1.1-0.4c-0.2-0.3-0.3-0.7-0.3-1.3v-9.8h1.3v9.9c0,0.2,0,0.4,0.1,0.4
							c0.1,0.1,0.2,0.1,0.3,0.1c0,0,0.1,0,0.1,0c0,0,0.1,0,0.2,0l0.2,1c-0.1,0-0.2,0.1-0.3,0.1S110.8,111.2,110.7,111.2z"/>
						<path class="st1" d="M116.4,111.2c-0.5,0-0.9-0.1-1.4-0.3s-0.8-0.4-1.1-0.8s-0.6-0.8-0.8-1.3c-0.2-0.5-0.3-1.1-0.3-1.7
							c0-0.7,0.1-1.2,0.3-1.7c0.2-0.5,0.5-0.9,0.8-1.3c0.3-0.4,0.7-0.6,1.1-0.8c0.4-0.2,0.9-0.3,1.4-0.3c0.5,0,0.9,0.1,1.4,0.3
							c0.4,0.2,0.8,0.4,1.1,0.8c0.3,0.4,0.6,0.8,0.8,1.3c0.2,0.5,0.3,1.1,0.3,1.7c0,0.6-0.1,1.2-0.3,1.7c-0.2,0.5-0.5,0.9-0.8,1.3
							s-0.7,0.6-1.1,0.8C117.3,111.1,116.8,111.2,116.4,111.2z M116.4,110.1c0.3,0,0.6-0.1,0.9-0.2c0.3-0.1,0.5-0.3,0.7-0.6
							c0.2-0.3,0.3-0.6,0.5-0.9c0.1-0.4,0.2-0.8,0.2-1.2s-0.1-0.9-0.2-1.2c-0.1-0.4-0.3-0.7-0.5-1s-0.4-0.5-0.7-0.6
							c-0.3-0.1-0.6-0.2-0.9-0.2c-0.3,0-0.6,0.1-0.9,0.2c-0.3,0.1-0.5,0.3-0.7,0.6s-0.3,0.6-0.5,1c-0.1,0.4-0.2,0.8-0.2,1.2
							s0.1,0.9,0.2,1.2c0.1,0.4,0.3,0.7,0.5,0.9c0.2,0.3,0.4,0.5,0.7,0.6C115.7,110,116,110.1,116.4,110.1z"/>
						<path class="st1" d="M125.1,111.2c-0.5,0-1-0.1-1.4-0.3s-0.8-0.4-1.2-0.8c-0.3-0.3-0.6-0.8-0.8-1.3c-0.2-0.5-0.3-1.1-0.3-1.7
							c0-0.7,0.1-1.2,0.3-1.7c0.2-0.5,0.5-0.9,0.8-1.3c0.3-0.4,0.7-0.6,1.2-0.8c0.5-0.2,0.9-0.3,1.4-0.3c0.5,0,0.9,0.1,1.3,0.3
							c0.4,0.2,0.7,0.4,1,0.6l-0.7,0.9c-0.2-0.2-0.5-0.4-0.7-0.5c-0.3-0.1-0.5-0.2-0.8-0.2c-0.4,0-0.7,0.1-1,0.2
							c-0.3,0.1-0.6,0.3-0.8,0.6c-0.2,0.3-0.4,0.6-0.5,1s-0.2,0.8-0.2,1.2s0.1,0.9,0.2,1.2c0.1,0.4,0.3,0.7,0.5,0.9
							c0.2,0.3,0.5,0.5,0.8,0.6c0.3,0.1,0.6,0.2,1,0.2c0.4,0,0.7-0.1,1-0.2c0.3-0.2,0.6-0.3,0.8-0.6l0.6,0.9
							c-0.4,0.3-0.7,0.6-1.2,0.7C126,111.1,125.6,111.2,125.1,111.2z"/>
						<path class="st1" d="M129.3,111V99.6h1.3v7.7h0l3.3-4.1h1.5l-2.6,3.1l3,4.7h-1.4l-2.3-3.7l-1.5,1.7v2H129.3z"/>
						<path class="st1" d="M140.1,111.2c-0.5,0-1-0.1-1.5-0.3s-0.8-0.5-1.2-0.8s-0.6-0.8-0.8-1.3c-0.2-0.5-0.3-1.1-0.3-1.7
							s0.1-1.2,0.3-1.7c0.2-0.5,0.5-0.9,0.8-1.3c0.3-0.4,0.7-0.6,1.1-0.8c0.4-0.2,0.8-0.3,1.3-0.3c0.5,0,0.9,0.1,1.3,0.3
							c0.4,0.2,0.7,0.4,1,0.7c0.3,0.3,0.5,0.7,0.6,1.2c0.1,0.4,0.2,1,0.2,1.5c0,0.1,0,0.3,0,0.4c0,0.1,0,0.2,0,0.3h-5.2
							c0.1,0.8,0.3,1.5,0.8,2s1.1,0.7,1.8,0.7c0.4,0,0.7-0.1,1-0.2c0.3-0.1,0.6-0.3,0.9-0.4l0.5,0.9c-0.3,0.2-0.7,0.4-1.1,0.6
							S140.6,111.2,140.1,111.2z M137.6,106.5h4.2c0-0.8-0.2-1.4-0.5-1.8c-0.3-0.4-0.8-0.6-1.4-0.6c-0.3,0-0.5,0.1-0.8,0.2
							c-0.3,0.1-0.5,0.3-0.7,0.5c-0.2,0.2-0.4,0.5-0.5,0.8S137.7,106.1,137.6,106.5z"/>
						<path class="st1" d="M147.5,111.2c-1,0-1.8-0.4-2.3-1.1c-0.6-0.7-0.9-1.7-0.9-3c0-0.6,0.1-1.2,0.3-1.7
							c0.2-0.5,0.4-0.9,0.7-1.3c0.3-0.4,0.7-0.6,1.1-0.8c0.4-0.2,0.8-0.3,1.3-0.3c0.4,0,0.8,0.1,1.2,0.2c0.3,0.2,0.7,0.4,1,0.7
							l-0.1-1.3v-3h1.3V111H150l-0.1-0.9h0c-0.3,0.3-0.7,0.6-1.1,0.8C148.4,111.1,148,111.2,147.5,111.2z M147.8,110.1
							c0.4,0,0.7-0.1,1-0.3s0.6-0.4,1-0.8V105c-0.3-0.3-0.6-0.5-1-0.6c-0.3-0.1-0.6-0.2-0.9-0.2c-0.3,0-0.6,0.1-0.9,0.2
							c-0.3,0.1-0.5,0.3-0.7,0.6c-0.2,0.3-0.4,0.6-0.5,0.9c-0.1,0.4-0.2,0.8-0.2,1.2c0,0.9,0.2,1.7,0.6,2.2
							C146.6,109.8,147.1,110.1,147.8,110.1z"/>
						<path class="st1" d="M160.8,111.2c-0.5,0-1-0.1-1.5-0.2c-0.5-0.2-0.9-0.4-1.2-0.8s-0.6-0.8-0.8-1.4s-0.3-1.3-0.3-2.1v-6.2h1.3
							v6.2c0,0.6,0.1,1.2,0.2,1.6c0.1,0.4,0.3,0.8,0.5,1c0.2,0.3,0.5,0.4,0.8,0.6c0.3,0.1,0.6,0.2,1,0.2c0.4,0,0.7-0.1,1-0.2
							c0.3-0.1,0.6-0.3,0.8-0.6s0.4-0.6,0.5-1c0.1-0.4,0.2-1,0.2-1.6v-6.2h1.3v6.2c0,0.8-0.1,1.6-0.3,2.1s-0.5,1-0.8,1.4
							s-0.7,0.6-1.2,0.8S161.3,111.2,160.8,111.2z"/>
						<path class="st1" d="M170.2,111.2c-0.7,0-1.4-0.1-2-0.4c-0.6-0.3-1.2-0.7-1.6-1.1l0.8-0.9c0.4,0.4,0.8,0.7,1.3,1
							c0.5,0.2,1,0.4,1.6,0.4c0.7,0,1.2-0.2,1.6-0.5c0.4-0.3,0.6-0.7,0.6-1.2c0-0.3,0-0.5-0.1-0.7c-0.1-0.2-0.2-0.3-0.4-0.5
							c-0.2-0.1-0.3-0.3-0.6-0.4c-0.2-0.1-0.4-0.2-0.7-0.3l-1.5-0.7c-0.2-0.1-0.5-0.2-0.8-0.4s-0.5-0.3-0.7-0.5
							c-0.2-0.2-0.4-0.5-0.5-0.8c-0.1-0.3-0.2-0.6-0.2-1c0-0.4,0.1-0.8,0.2-1.1s0.4-0.6,0.7-0.9c0.3-0.2,0.6-0.4,1-0.6
							c0.4-0.1,0.8-0.2,1.3-0.2c0.6,0,1.2,0.1,1.7,0.4s1,0.6,1.4,0.9l-0.7,0.9c-0.3-0.3-0.7-0.6-1.1-0.7c-0.4-0.2-0.8-0.3-1.3-0.3
							c-0.6,0-1.1,0.1-1.4,0.4c-0.4,0.3-0.5,0.6-0.5,1.1c0,0.3,0.1,0.5,0.2,0.6c0.1,0.2,0.2,0.3,0.4,0.5c0.2,0.1,0.4,0.3,0.6,0.4
							c0.2,0.1,0.4,0.2,0.6,0.3l1.5,0.6c0.3,0.1,0.6,0.3,0.8,0.4c0.3,0.2,0.5,0.4,0.7,0.6c0.2,0.2,0.3,0.5,0.5,0.8
							c0.1,0.3,0.2,0.6,0.2,1c0,0.4-0.1,0.8-0.2,1.2c-0.2,0.4-0.4,0.7-0.7,1c-0.3,0.3-0.7,0.5-1.1,0.6S170.7,111.2,170.2,111.2z"/>
						<path class="st1" d="M175.8,111v-10.5h2.6c1.6,0,2.9,0.4,3.7,1.3c0.8,0.9,1.3,2.2,1.3,3.9c0,0.8-0.1,1.6-0.3,2.2
							c-0.2,0.7-0.5,1.2-0.9,1.7c-0.4,0.5-0.9,0.8-1.5,1c-0.6,0.2-1.3,0.4-2.1,0.4H175.8z M177.1,109.9h1.2c1.2,0,2.1-0.4,2.8-1.1
							c0.6-0.7,0.9-1.8,0.9-3.1s-0.3-2.4-0.9-3.1c-0.6-0.7-1.5-1.1-2.8-1.1h-1.2V109.9z"/>
						<path class="st1" d="M187.4,111v-9.4h-3.2v-1.1h7.7v1.1h-3.2v9.4H187.4z"/>
					</g>
				</g>
				<g class="st0">
					<g>
						<path class="st1" d="M49.2,135.2c-0.4,0-0.8-0.1-1-0.2c-0.3-0.1-0.5-0.3-0.7-0.5c-0.2-0.2-0.3-0.5-0.4-0.8
							c-0.1-0.3-0.1-0.7-0.1-1.1v-4.3h-1.2v-1l1.2-0.1l0.2-2.2h1.1v2.2h2.1v1.1h-2.1v4.3c0,0.5,0.1,0.9,0.3,1.1
							c0.2,0.3,0.5,0.4,0.9,0.4c0.1,0,0.3,0,0.4-0.1c0.2,0,0.3-0.1,0.4-0.1l0.3,1c-0.2,0.1-0.4,0.1-0.7,0.2
							C49.7,135.2,49.5,135.2,49.2,135.2z"/>
						<path class="st1" d="M55,135.2c-0.5,0-0.9-0.1-1.4-0.3s-0.8-0.4-1.1-0.8c-0.3-0.3-0.6-0.8-0.8-1.3c-0.2-0.5-0.3-1.1-0.3-1.7
							c0-0.7,0.1-1.2,0.3-1.7c0.2-0.5,0.5-0.9,0.8-1.3c0.3-0.4,0.7-0.6,1.1-0.8c0.4-0.2,0.9-0.3,1.4-0.3c0.5,0,0.9,0.1,1.4,0.3
							c0.4,0.2,0.8,0.4,1.1,0.8c0.3,0.4,0.6,0.8,0.8,1.3c0.2,0.5,0.3,1.1,0.3,1.7c0,0.6-0.1,1.2-0.3,1.7c-0.2,0.5-0.5,0.9-0.8,1.3
							s-0.7,0.6-1.1,0.8C55.9,135.1,55.5,135.2,55,135.2z M55,134.1c0.3,0,0.6-0.1,0.9-0.2c0.3-0.1,0.5-0.3,0.7-0.6
							c0.2-0.3,0.3-0.6,0.5-0.9c0.1-0.4,0.2-0.8,0.2-1.2s-0.1-0.9-0.2-1.2c-0.1-0.4-0.3-0.7-0.5-1s-0.4-0.5-0.7-0.6
							c-0.3-0.1-0.6-0.2-0.9-0.2c-0.3,0-0.6,0.1-0.9,0.2c-0.3,0.1-0.5,0.3-0.7,0.6s-0.3,0.6-0.5,1s-0.2,0.8-0.2,1.2s0.1,0.9,0.2,1.2
							c0.1,0.4,0.3,0.7,0.5,0.9c0.2,0.3,0.4,0.5,0.7,0.6C54.3,134,54.7,134.1,55,134.1z"/>
						<path class="st1" d="M64,138.3c-0.2,0-0.3,0-0.5,0s-0.3-0.1-0.4-0.1l0.3-1c0.1,0,0.2,0,0.3,0.1s0.2,0,0.3,0
							c0.4,0,0.8-0.2,1.1-0.5c0.3-0.3,0.5-0.7,0.7-1.2l0.2-0.6l-3.1-7.8h1.4l1.6,4.3c0.1,0.3,0.2,0.7,0.4,1.1
							c0.1,0.4,0.3,0.7,0.4,1.1h0.1c0.1-0.4,0.2-0.7,0.3-1.1s0.2-0.7,0.3-1.1l1.4-4.3h1.3l-2.9,8.4c-0.1,0.4-0.3,0.7-0.5,1.1
							c-0.2,0.3-0.4,0.6-0.6,0.9c-0.2,0.2-0.5,0.4-0.8,0.6C64.7,138.3,64.4,138.3,64,138.3z"/>
						<path class="st1" d="M74.3,135.2c-0.5,0-0.9-0.1-1.4-0.3c-0.4-0.2-0.8-0.4-1.1-0.8c-0.3-0.3-0.6-0.8-0.8-1.3
							c-0.2-0.5-0.3-1.1-0.3-1.7c0-0.7,0.1-1.2,0.3-1.7c0.2-0.5,0.5-0.9,0.8-1.3c0.3-0.4,0.7-0.6,1.1-0.8c0.4-0.2,0.9-0.3,1.4-0.3
							c0.5,0,0.9,0.1,1.4,0.3c0.4,0.2,0.8,0.4,1.1,0.8c0.3,0.4,0.6,0.8,0.8,1.3c0.2,0.5,0.3,1.1,0.3,1.7c0,0.6-0.1,1.2-0.3,1.7
							c-0.2,0.5-0.5,0.9-0.8,1.3c-0.3,0.3-0.7,0.6-1.1,0.8C75.2,135.1,74.7,135.2,74.3,135.2z M74.3,134.1c0.3,0,0.6-0.1,0.9-0.2
							c0.3-0.1,0.5-0.3,0.7-0.6c0.2-0.3,0.3-0.6,0.5-0.9c0.1-0.4,0.2-0.8,0.2-1.2s-0.1-0.9-0.2-1.2s-0.3-0.7-0.5-1s-0.4-0.5-0.7-0.6
							c-0.3-0.1-0.6-0.2-0.9-0.2c-0.3,0-0.6,0.1-0.9,0.2c-0.3,0.1-0.5,0.3-0.7,0.6s-0.3,0.6-0.5,1s-0.2,0.8-0.2,1.2s0.1,0.9,0.2,1.2
							c0.1,0.4,0.3,0.7,0.5,0.9c0.2,0.3,0.4,0.5,0.7,0.6C73.6,134,73.9,134.1,74.3,134.1z"/>
						<path class="st1" d="M82.2,135.2c-0.8,0-1.4-0.3-1.8-0.8c-0.4-0.5-0.6-1.3-0.6-2.3v-4.9h1.3v4.8c0,0.7,0.1,1.3,0.3,1.6
							s0.6,0.5,1.1,0.5c0.4,0,0.8-0.1,1.1-0.3c0.3-0.2,0.7-0.5,1-1v-5.5H86v7.8h-1.1l-0.1-1.2h0c-0.4,0.4-0.7,0.8-1.1,1
							C83.2,135.1,82.7,135.2,82.2,135.2z"/>
						<path class="st1" d="M88.6,135v-7.8h1.1l0.1,1.4h0c0.3-0.5,0.6-0.9,1-1.2s0.8-0.4,1.2-0.4c0.3,0,0.6,0.1,0.8,0.2l-0.3,1.2
							c-0.1,0-0.2-0.1-0.4-0.1s-0.2,0-0.4,0c-0.3,0-0.7,0.1-1,0.4s-0.7,0.7-0.9,1.4v5H88.6z"/>
						<path class="st1" d="M99.2,135.2c-0.7,0-1.2-0.2-1.6-0.6c-0.4-0.4-0.6-0.9-0.6-1.6c0-0.9,0.4-1.5,1.1-2c0.8-0.5,2-0.8,3.6-1
							c0-0.2,0-0.5-0.1-0.7c0-0.2-0.1-0.4-0.2-0.6c-0.1-0.2-0.3-0.3-0.5-0.4s-0.5-0.2-0.8-0.2c-0.4,0-0.9,0.1-1.3,0.3
							s-0.7,0.4-1.1,0.6l-0.5-0.9c0.4-0.2,0.8-0.5,1.3-0.7c0.5-0.2,1.1-0.3,1.7-0.3c0.9,0,1.6,0.3,2.1,0.9c0.4,0.6,0.6,1.4,0.6,2.3
							v4.8h-1.1l-0.1-0.9h0c-0.4,0.3-0.8,0.6-1.2,0.8C100.1,135.1,99.7,135.2,99.2,135.2z M99.5,134.1c0.4,0,0.7-0.1,1.1-0.3
							c0.3-0.2,0.7-0.4,1.1-0.8v-2.2c-0.7,0.1-1.2,0.2-1.6,0.3c-0.4,0.1-0.8,0.3-1.1,0.4c-0.3,0.2-0.5,0.3-0.6,0.6
							c-0.1,0.2-0.2,0.4-0.2,0.7c0,0.4,0.1,0.8,0.4,1C98.8,134,99.2,134.1,99.5,134.1z"/>
						<path class="st1" d="M108.5,135.2c-0.5,0-1-0.1-1.4-0.3s-0.8-0.4-1.2-0.8s-0.6-0.8-0.8-1.3c-0.2-0.5-0.3-1.1-0.3-1.7
							c0-0.7,0.1-1.2,0.3-1.7c0.2-0.5,0.5-0.9,0.8-1.3c0.3-0.4,0.7-0.6,1.2-0.8c0.5-0.2,0.9-0.3,1.4-0.3c0.5,0,0.9,0.1,1.3,0.3
							c0.4,0.2,0.7,0.4,1,0.6l-0.7,0.9c-0.2-0.2-0.5-0.4-0.7-0.5c-0.3-0.1-0.5-0.2-0.8-0.2c-0.4,0-0.7,0.1-1,0.2
							c-0.3,0.1-0.6,0.3-0.8,0.6c-0.2,0.3-0.4,0.6-0.5,1c-0.1,0.4-0.2,0.8-0.2,1.2s0.1,0.9,0.2,1.2c0.1,0.4,0.3,0.7,0.5,0.9
							c0.2,0.3,0.5,0.5,0.8,0.6c0.3,0.1,0.6,0.2,1,0.2c0.4,0,0.7-0.1,1-0.2s0.6-0.3,0.8-0.6l0.6,0.9c-0.4,0.3-0.7,0.6-1.2,0.7
							C109.4,135.1,109,135.2,108.5,135.2z"/>
						<path class="st1" d="M115.5,135.2c-0.5,0-1-0.1-1.4-0.3s-0.8-0.4-1.2-0.8s-0.6-0.8-0.8-1.3c-0.2-0.5-0.3-1.1-0.3-1.7
							c0-0.7,0.1-1.2,0.3-1.7c0.2-0.5,0.5-0.9,0.8-1.3c0.3-0.4,0.7-0.6,1.2-0.8c0.5-0.2,0.9-0.3,1.4-0.3c0.5,0,0.9,0.1,1.3,0.3
							c0.4,0.2,0.7,0.4,1,0.6l-0.7,0.9c-0.2-0.2-0.5-0.4-0.7-0.5c-0.3-0.1-0.5-0.2-0.8-0.2c-0.4,0-0.7,0.1-1,0.2
							c-0.3,0.1-0.6,0.3-0.8,0.6c-0.2,0.3-0.4,0.6-0.5,1c-0.1,0.4-0.2,0.8-0.2,1.2s0.1,0.9,0.2,1.2c0.1,0.4,0.3,0.7,0.5,0.9
							c0.2,0.3,0.5,0.5,0.8,0.6c0.3,0.1,0.6,0.2,1,0.2c0.4,0,0.7-0.1,1-0.2s0.6-0.3,0.8-0.6l0.6,0.9c-0.4,0.3-0.7,0.6-1.2,0.7
							C116.4,135.1,115.9,135.2,115.5,135.2z"/>
						<path class="st1" d="M122.4,135.2c-0.5,0-0.9-0.1-1.4-0.3c-0.4-0.2-0.8-0.4-1.1-0.8c-0.3-0.3-0.6-0.8-0.8-1.3
							c-0.2-0.5-0.3-1.1-0.3-1.7c0-0.7,0.1-1.2,0.3-1.7c0.2-0.5,0.5-0.9,0.8-1.3c0.3-0.4,0.7-0.6,1.1-0.8c0.4-0.2,0.9-0.3,1.4-0.3
							c0.5,0,0.9,0.1,1.4,0.3c0.4,0.2,0.8,0.4,1.1,0.8c0.3,0.4,0.6,0.8,0.8,1.3c0.2,0.5,0.3,1.1,0.3,1.7c0,0.6-0.1,1.2-0.3,1.7
							c-0.2,0.5-0.5,0.9-0.8,1.3c-0.3,0.3-0.7,0.6-1.1,0.8C123.3,135.1,122.9,135.2,122.4,135.2z M122.4,134.1
							c0.3,0,0.6-0.1,0.9-0.2c0.3-0.1,0.5-0.3,0.7-0.6c0.2-0.3,0.3-0.6,0.5-0.9c0.1-0.4,0.2-0.8,0.2-1.2s-0.1-0.9-0.2-1.2
							s-0.3-0.7-0.5-1s-0.4-0.5-0.7-0.6c-0.3-0.1-0.6-0.2-0.9-0.2c-0.3,0-0.6,0.1-0.9,0.2c-0.3,0.1-0.5,0.3-0.7,0.6s-0.3,0.6-0.5,1
							s-0.2,0.8-0.2,1.2s0.1,0.9,0.2,1.2c0.1,0.4,0.3,0.7,0.5,0.9c0.2,0.3,0.4,0.5,0.7,0.6C121.7,134,122,134.1,122.4,134.1z"/>
						<path class="st1" d="M130.3,135.2c-0.8,0-1.4-0.3-1.8-0.8c-0.4-0.5-0.6-1.3-0.6-2.3v-4.9h1.3v4.8c0,0.7,0.1,1.3,0.3,1.6
							s0.6,0.5,1.1,0.5c0.4,0,0.8-0.1,1.1-0.3c0.3-0.2,0.7-0.5,1-1v-5.5h1.3v7.8H133l-0.1-1.2h0c-0.4,0.4-0.7,0.8-1.1,1
							C131.3,135.1,130.8,135.2,130.3,135.2z"/>
						<path class="st1" d="M136.7,135v-7.8h1.1l0.1,1.1h0c0.4-0.4,0.8-0.7,1.2-0.9c0.4-0.3,0.9-0.4,1.4-0.4c0.8,0,1.4,0.3,1.8,0.8
							c0.4,0.5,0.6,1.3,0.6,2.3v4.9h-1.3v-4.8c0-0.7-0.1-1.3-0.4-1.6s-0.6-0.5-1.1-0.5c-0.4,0-0.8,0.1-1.1,0.3
							c-0.3,0.2-0.7,0.5-1.1,0.9v5.6H136.7z"/>
						<path class="st1" d="M147.9,135.2c-0.4,0-0.8-0.1-1-0.2c-0.3-0.1-0.5-0.3-0.7-0.5c-0.2-0.2-0.3-0.5-0.4-0.8
							c-0.1-0.3-0.1-0.7-0.1-1.1v-4.3h-1.2v-1l1.2-0.1l0.2-2.2h1.1v2.2h2.1v1.1H147v4.3c0,0.5,0.1,0.9,0.3,1.1
							c0.2,0.3,0.5,0.4,0.9,0.4c0.1,0,0.3,0,0.4-0.1c0.2,0,0.3-0.1,0.4-0.1l0.3,1c-0.2,0.1-0.4,0.1-0.7,0.2
							C148.4,135.2,148.2,135.2,147.9,135.2z"/>
					</g>
				</g>
				<g id="Group-22" transform="translate(58.000000, 0.000000)">
					<g id="Group-11">
						<circle id="Oval-7-Copy-2" class="st2" cx="39.7" cy="39.7" r="39.7"/>
						<g id="Group-8" transform="translate(5.001553, 5.001553)">
							<circle id="Oval-7_2_" class="st3" cx="34.7" cy="34.7" r="34.7"/>
							<g id="Group-16" transform="translate(20.006213, 17.148183)">
								<g id="noun_x5F_Wallet_x5F_265758-_x28_1_x29_" transform="translate(0.000000, 8.853545)">
									<g id="Group_1_">
										<path id="Shape_7_" class="st4" d="M18.1,14.5c0-3,2.5-5.5,5.6-5.5h4.9V6.1c0-1.5-1.2-2.7-2.7-2.7H3
											c-1.9,0-2.9-1.5-2.9-1.5V24c1,1.8,2.8,1.8,2.8,1.8h23c1.5,0,2.7-1.2,2.7-2.7V20h-4.9C20.6,20,18.1,17.5,18.1,14.5z"/>
										<path id="Shape_8_" class="st4" d="M28.8,10.2h-0.3h-4.9c-2.4,0-4.3,1.9-4.3,4.2s1.9,4.2,4.3,4.2h4.9h0.2
											c0.6,0,1.1-0.5,1.1-1.1v-6.2C29.9,10.7,29.4,10.2,28.8,10.2z M24.7,16.1c-0.9,0-1.6-0.7-1.6-1.6c0-0.9,0.7-1.6,1.6-1.6
											c0.9,0,1.6,0.7,1.6,1.6C26.3,15.4,25.6,16.1,24.7,16.1z"/>
										<path id="Combined-Shape_2_" class="st4" d="M9.2,0.1c0.4,0.7,1,1.3,1.7,1.8H6.7H5H4c-1.1,0-1.7,0-1.7,0
											c-1-0.2-0.8-1.8,2.3-1.8h3.1L9.2,0.1z M20.4,0.1l3.7,0h1.3c1.4,0,2.6,1.1,2.6,2.5v0.3c-0.5-0.8-1.8-1-1.8-1h-1.5H24h-0.7
											h-4.6C19.4,1.4,20,0.8,20.4,0.1z"/>
									</g>
								</g>
								<g id="Group-2-Copy-4" transform="translate(9.288599, 0.000000)">
									<path id="Shape_9_" class="st4" d="M5.6,11.1C2.5,11.1,0,8.6,0,5.5S2.5,0,5.6,0s5.6,2.5,5.6,5.5S8.7,11.1,5.6,11.1z
										 M6.1,4.8V4.1h1.6v-1H3.4v1h1.6v0.7C3.7,4.9,2.7,5.1,2.7,5.4S3.7,6,4.9,6v2.2h1.1V6C7.4,6,8.3,5.7,8.3,5.4
										C8.3,5.1,7.4,4.9,6.1,4.8z M6.1,5.8L6.1,5.8c0,0-0.2,0-0.6,0c-0.3,0-0.5,0-0.6,0v0c-1.1,0-2-0.2-2-0.5c0-0.2,0.8-0.4,2-0.5
										v0.8c0.1,0,0.3,0,0.6,0c0.4,0,0.5,0,0.6,0V4.9c1.1,0,2,0.2,2,0.5C8.1,5.6,7.2,5.8,6.1,5.8z"/>
								</g>
							</g>
						</g>
					</g>
					<g id="Group-17-Copy-2" transform="translate(4.441379, 2.855172)">
						<circle id="Oval-8_2_" class="st4" cx="9.4" cy="9.4" r="9.4"/>
						<text transform="matrix(1 0 0 1 6.091 13.5862)" class="st7 st8 st9">3</text>
					</g>
				</g>
			</g>
			<path id="Line-2" class="st10" d="M140.5,39.5h93"/>
			<path id="Line-2-Copy" class="st10" d="M375.5,39.5h93"/>
		</g>
	</g>
</g>
</svg>
